<?xml version="1.0" encoding="utf-8"?>
<!-- Generator: Adobe Illustrator 18.1.1, SVG Export Plug-In . SVG Version: 6.00 Build 0)  -->
<svg version="1.1" id="Capa_1" xmlns="http://www.w3.org/2000/svg" xmlns:xlink="http://www.w3.org/1999/xlink" x="0px" y="0px"
	 viewBox="0 0 1984.2 1417.3" enable-background="new 0 0 1984.2 1417.3" xml:space="preserve">
<path fill="#E51F57" d="M617.4,545.8c0-4.2,0-8.4,0-12.7c4.2,0,8.1,0,12.2,0c0,1.5,0,3.1,0,4.9c-2.1,0-4.1,0-6.2,0
	c0,1.6,0,2.9,0,4.3c0.3,0.3,0.6,1,0.9,1c1.4,0.1,2.9,0,4.3,0c0.1,0.3,0.3,0.5,0.4,0.8c-0.1,1.3-0.1,2.6-0.2,4l0.1-0.1
	c-1.9,0.3-3.7,0.6-5.6,0.8c0,1.2-0.2,2.4,0,3.5c0.1,0.5,0.8,0.9,1.2,1.3c2,0.1,4,0.3,6.1,0.4c0,1.7,0,3.2,0,5.6
	c-3.7,0-7.3,0.1-10.9-0.1c-0.8,0-1.6-0.9-2.3-1.3c0-0.3,0-0.7,0-1C617.4,553.3,617.4,549.6,617.4,545.8z"/>
<path fill="#E0E700" d="M596.5,547.8c-2.1-4.8-4.2-9.6-6.5-14.8c2.4,0.8,5-1.4,6.5,1.4c1.1,1.9,1.7,4.1,2.8,6.8c1.2-3,2.2-5.5,3.2-8
	c1.8,0,3.5,0,5.4,0c-1.7,4.6-3.4,9-5,13.4c-0.1,0.6-0.3,1.2-0.4,1.8c0,0.8,0,1.6,0,2.4c0,2.7,0,5.4,0,8.3c-2,0-3.8,0-6,0
	C596.5,555.3,596.5,551.5,596.5,547.8z"/>
<path fill="#FC4FFD" d="M667.4,534.5c4.2-1,8.4-1.1,12.5,0.6c3.4,1.4,5.3,8.4,0.9,12c-0.3,0.2-0.5,0.4-0.8,0.6
	c-0.2,0.3-0.5,0.6-0.7,0.8c0,0.2,0.1,0.4,0.1,0.6c0.1,0.2,0.2,0.5,0.4,0.7c0,0,0-0.1,0-0.1c-0.1,0.2,0,0.4,0.2,0.5
	c0.5,1.5,1.1,3,1.6,4.5c0.6,1.6,1.2,3.1,1.8,4.6c-4.4,1.5-5.4,1-6.9-3.3c-0.9-2.5-1.7-4.9-3-7.4c0,3.6,0,7.2,0,11.2
	c-2.2-0.1-4.1-0.2-6-0.3c0-4.2,0-8.3-0.1-12.5c0.1-0.2,0.1-0.4,0-0.6c0-0.4,0-0.7,0-1.1C667.4,541.9,667.4,538.2,667.4,534.5z
	 M673.3,545.4c3.1-0.1,4.2-1.2,4-3.9c-0.2-2.4-1.3-3.7-4-3.3C673.3,540.7,673.3,543.1,673.3,545.4z"/>
<path fill="#FCFDFD" d="M650.3,534.1c0.1,0.2,0.2,0.4,0.2,0.6c1.1,4.1,2.1,8.2,3.2,12.3c0.7,3,1.4,5.9,2.2,8.9
	c0.3,0.9,0.6,1.9,0.8,2.8c-0.4,0.5-0.7,1.3-1.1,1.4c-1.3,0.2-2.7,0.1-4.2,0.1c-0.4-1.3-0.7-2.5-1.1-3.9c-2.1,0-4.2,0-6.6,0
	c-0.4,1.2-0.8,2.4-1.2,3.8c-1.7,0-3.3,0-5.3,0c0.9-3.5,1.7-6.8,2.6-10.2c0.5-1.8,1.1-3.5,1.6-5.3c1-3.5,2-7,3-10.5
	C646.7,534.1,648.5,534.1,650.3,534.1z M649.8,551.6c-0.8-3.2-1.5-6-2.3-8.8c-0.3,0-0.5,0-0.8,0c-0.6,2.8-1.2,5.7-1.9,8.7
	C646.5,551.6,647.9,551.6,649.8,551.6z"/>
<linearGradient id="SVGID_1_" gradientUnits="userSpaceOnUse" x1="450.2359" y1="417.2914" x2="916.3976" y2="417.2914">
	<stop  offset="0" style="stop-color:#FFFFFF"/>
	<stop  offset="6.896552e-02" style="stop-color:#D8423F"/>
	<stop  offset="0.1724" style="stop-color:#FDF6F6"/>
	<stop  offset="1" style="stop-color:#BF3D3A"/>
	<stop  offset="1" style="stop-color:#D6423F"/>
	<stop  offset="1" style="stop-color:#AD3A37"/>
	<stop  offset="1" style="stop-color:#000000"/>
</linearGradient>
<path fill="url(#SVGID_1_)" d="M539.9,499.4c-7.6-0.1-15.2-0.3-22.8-0.3c-21.2-0.1-42.4-0.1-63.7-0.2c-1.1,0-2.1-0.5-3.2-0.7
	c0-0.4,0.1-0.8,0.1-1.2c0-15.5-0.1-30.9,0-46.4c0-3.7,0.4-7.4,1.1-11.1c2-10,7.2-18.3,14.3-25.5c0.9-0.8,1.8-1.6,2.8-2.4
	c0.2-0.2,0.5-0.4,0.7-0.6c5.6-4,11.7-7,18.3-8.9c5.1-0.4,10.3-0.9,15.4-1.2c5-0.3,10.1-0.3,15.2-0.4c2.4-1,4.7-1.9,7.1-2.9
	c5.3-3.6,7.8-10.4,6.2-17c-1.7-6.5-6.9-11.3-13.3-11.9c-1.7-0.2-3.5-0.4-5.2-0.4c-17.3-0.1-34.6-0.1-51.9-0.1c-1.1,0-2.2,0-3.3,0
	c0-11.1,0-21.8,0-32.5c3.9,0,7.8,0,11.7,0c16.8,0,33.6,0,50.4-0.1c6.5,0.6,12.7,2.5,18.6,5.3c8.1,4.7,14.9,10.8,19.7,18.9
	c0.3,0.5,1.3,0.6,2,0.9c0.7,1.1,1.7,2.2,2,3.4c0.4,1.9,0.2,3.9,0.5,5.8c0.4,2.7,1.4,5.3,1.5,8c0.3,4.9,0.1,9.9,0.1,14.8
	c-0.8,3.1-1.6,6.3-2.5,9.4c-1.7,3.4-3.5,6.7-5.2,10.1l0,0c-0.3,0.3-0.6,0.7-0.9,1c-3.2,3.4-6.5,6.8-9.7,10.1
	c-0.2,0.2-0.4,0.3-0.6,0.5c-5.1,2.6-10.1,5.1-15.2,7.7c-1.4,0.4-2.8,0.8-4.3,1.1c-0.6,0.2-1.2,0.4-1.8,0.6l0,0
	c-1.4,0.1-2.7,0.1-4.1,0.2c-6.6,0-13.3,0-19.9,0.2c-2.2,0.1-4.3,0.9-6.5,1.4c-6.5,1.8-11.1,9-10.1,16c11.9,0,23.9,0,35.9,0
	c16.6,0,33.3,0,49.9,0c5.7,0,11.4,0,17.1,0c-0.9-5.3-1.8-10.3-2.6-15.3c-0.3-9-0.6-18-0.9-27c1.2-8.4,2.4-16.8,3.5-25.2
	c2-5.7,4-11.4,6.1-17.2c0.8-1.5,1.5-3,2.3-4.4c0.4-0.6,0.9-1.3,1.3-1.9c5.5-8.6,12.3-16.1,21.8-20.2c5.8-2.5,12.3-3.5,18.5-5.2
	c3.2-0.2,6.4-0.4,9.5-0.7c6.9,0,13.7,0.1,20.6,0.1c2.6,0.2,5.2,0.5,7.8,0.5c5.3,0.1,10.7,0.1,16,0.1c4.2,0.1,8.4,0.3,12.7,0.4
	l0.2,0.1c3.9,0.2,7.8,0.5,11.7,0.5c23.6,0.1,47.2,0,70.9,0.1c43.6,0,87.2,0,130.8,0c-1.5,4.7-3,9.4-4.5,14.2
	c-2.4,7.1-4.8,14.1-7.3,21.2c-1.1,3.3-2.3,6.6-3.4,9.9c-4.1,11.9-8.2,23.8-12.2,35.8c-1.1,3.2-2.1,6.3-3.2,9.5
	c-0.1,0.2-0.2,0.4-0.3,0.6c-0.3,1-0.6,2-0.9,2.9c-0.8,2.3-1.6,4.7-2.4,7c-3.7,10.7-7.3,21.3-11,32c-3.2,9.1-6.4,18.2-9.5,27.4
	c-0.7,2.1-1.7,2.6-3.7,2.6c-10.6-0.1-21.1,0-31.7,0c0.1-1,0.1-2,0.5-3c3.9-11.6,7.9-23.2,11.8-34.8c0.8-2.5,1.7-5,2.5-7.5
	c2.3-6.5,4.5-13,6.8-19.5c0.3-1,0.5-2,0.8-3c3.3-9.4,6.6-18.8,10-28.2c1.5-4.2,3-8.5,4.7-12.9c-1.6,0-2.8,0-4.1,0
	c-2.8,0-5.5,0-8.3,0c-2.2,0-4.3,0-6.5,0c-8.4,0-16.8,0-25.3,0.1c-2.7,0-5.5,0-8.2,0c-10,0-20,0-30,0c-0.2,1-0.6,2-0.6,2.9
	c0,27.6,0,55.2,0,82.9c0,4.3,0.1,8.6,0.1,12.9c0,0.5,0,1,0,1.5c0,2.8-0.1,5.7-0.1,8.5c-6.9,0.1-13.9,0.2-20.8,0.3c-3.9,0-7.8,0-12,0
	c0-1.5,0-2.7,0-3.8c-0.1-12.6-0.1-25.2-0.2-37.8c0-1.5,0-3-0.1-4.4c0-8.8,0-17.6,0-26.4c0-9,0-18.1-0.1-27.1c0-3.1,0-6.2,0-9.3
	c-12.2,0-24.3,0-36.2,0c0.7,6.8,1.4,13.4,2.1,20c0,4.9,0,9.9,0,14.8c-0.4,4.5-0.7,9.1-1.3,13.6c-2.8,20-9.4,38.3-25.8,51.5
	c-2.7,1.6-5.5,3.3-8.2,4.9c-6.3,2.6-12.6,5.4-19.6,5.5c-7.4,0.1-14.9,0.1-22.3,0.1c-10.9-0.1-21.9-0.3-32.8-0.4
	C582.3,499.9,561.1,499.7,539.9,499.4z M834.3,375.4c0-2.6,0-5.2,0-7.8c0.5-2.4,2.5-1.3,3.9-1.5c3.8-0.7,6.1-3,6.5-6.8
	c0.3-4.1-1.5-7.7-4.9-8.3c-3.6-0.7-7.2-0.6-10.9-0.8c0,7.8,0,15.1,0,22.3c0,1.3,0,2.6,0,4.1c1.9-0.1,3.6-0.2,5.2-0.2
	C834.1,376,834.2,375.7,834.3,375.4z M769.7,367.6c-0.8-3.1-1.5-6.2-2.3-9.4c-0.5-2.1-1.1-4.1-1.4-6.2c-0.3-1.9-1.4-1.9-2.7-1.7
	c-1.4,0.2-3.3-1-4,1.6c-1.3,5.3-2.9,10.5-4.4,15.7c-0.8,2.8-1.7,5.7-2.5,8.6c5.2,0.4,5.2,0.4,6.5-3.9c0.2,0,0.4-0.1,0.6-0.1
	c2,0,4,0,6.1,0c0.4,1.5,0.8,2.7,1.2,4c1.7,0,3.4,0,5.4,0c-0.7-2.6-1.4-5-2.1-7.4C769.8,368.5,769.8,368,769.7,367.6z M488.1,464.5
	c0,8.6,0,17.1,0,25.7c1.8,0,3.5,0,5.2,0c0-4.5,0-8.8,0-13.1c0.2-0.8,0.5-1.5,0.7-2.3c1.5,3.8,2.9,7.7,4.4,11.5
	c1.9,4.7,2.4,4.9,7.7,3.7c0-8.2,0-16.4,0-24.6c0-0.4-0.6-0.7-0.9-1.1c-1.4,0-2.8,0-4.4,0c0,1.7,0,3.1,0,4.5c0,3.4,0,6.8,0,10.2
	c-0.3,0-0.5,0.1-0.8,0.1c-1-2.3-1.9-4.7-2.9-7c-0.8-2.3-1.6-4.6-2.6-6.8c-0.2-0.5-1.1-1.1-1.7-1.1
	C491.2,464.2,489.7,464.4,488.1,464.5z M614.6,420.1c0,0.8,0,1.6,0,2.3c-0.2,8.3,1.1,16.4,3.5,24.3c3.8,12.3,11.7,22.7,27.4,24.1
	c7.6,0.6,14.8-0.8,20.9-5.8c2.7-3.2,6-6,8-9.6c5-8.5,6.7-18.1,7.3-27.8c0.9-13.6,0.7-27.2-3.7-40.3c-3.2-9.6-8.6-17.5-18.7-21.2
	c-3.3-0.7-6.6-1.3-9.9-2c-14.8-0.8-26.8,8-30.8,22.4c-0.2,0.3-0.4,0.6-0.5,1C614.8,398.1,614.1,409,614.6,420.1z M869.9,364.2
	c0,4,0,7.9,0,12.1c2.2,0,3.9,0,5.3,0c0.6-5.1,1.2-10.1,1.9-15.1c1.5-3.5,3-7.1,4.6-10.7c-5.5-0.6-5.5-0.6-7.3,4.1
	c-0.4,1.1-0.9,2.2-1.4,3.7c-3.8-8.6-3.8-8.6-9.4-7.7C865.6,355.2,867.7,359.7,869.9,364.2z M579.3,479.8c-0.1,0-0.3,0-0.4,0
	c-0.9-5.1-1.9-10.3-2.8-15.5c-1.6,0-3,0-4.6,0c-0.9,5.1-1.9,10.1-2.8,15c-0.2,0-0.4,0-0.6,0c-0.5-5-1.1-10-1.6-15
	c-2.3,0-4.1,0-5.9,0c1.4,7.4,2.8,14.6,4.2,21.8c0.9,4.6,0.9,4.6,5.8,3.8c1-5.5,2-11.1,3-16.7c0.1,0,0.3,0,0.4,0
	c1,5.6,2.1,11.3,3.1,16.9c1.6,0,3.1,0,4.5,0c0.2-0.6,0.3-1.1,0.4-1.5c1.6-8,3.2-16.1,4.8-24.3c-1.8,0-3.4,0-5.5,0
	C580.7,469.5,580,474.7,579.3,479.8z M715.4,350.4c0,8.8,0,17.3,0,25.8c1.9,0,3.7,0,5.7,0c0-3.7,0-7.2,0-10.7c1.8,0,3.3,0,5.2,0
	c0,3.7,0,7.2,0,10.8c2,0,3.7,0,5.5,0c0-8.7,0-17.2,0-26c-1.8,0-3.5,0-6,0c0.6,3.2,1.1,6.1,1.6,9c0.1,0.4,0.1,1-0.2,1.3
	c-0.2,0.3-0.9,0.3-1.3,0.2c-1.6-0.3-3.1-0.8-4.9-1.2c0-3,0-6.1,0-9.4C719.1,350.4,717.4,350.4,715.4,350.4z M798.3,376.3
	c0-3.6,0-6.8,0-10c1.4-0.1,2.5-0.2,3.6-0.3c4.1-0.6,6.3-3.2,6.4-7.4c0-4.8-2-7.6-6.3-8c-3.1-0.3-6.2-0.1-9.3-0.1
	c0,8.8,0,17.3,0,25.9C794.5,376.3,796.1,376.3,798.3,376.3z M540.9,490.3c0-1.7,0-3.3,0-5.3c-2.4,0-4.7,0-7.1,0c0-2,0-3.6,0-5.5
	c1.8,0,3.5,0,5.3,0c0-1.8,0-3.3,0-5c-1.8,0-3.5,0-5.2,0c0-1.8,0-3.4,0-5.2c2.2,0,4.2,0,6.2,0c0-1.8,0-3.3,0-4.9c-4.1,0-8.1,0-12,0
	c0,8.7,0,17.2,0,25.9C532.5,490.3,536.7,490.3,540.9,490.3z"/>
</svg>
