<?xml version="1.0" encoding="utf-8"?>
<!-- Generator: Adobe Illustrator 19.0.0, SVG Export Plug-In . SVG Version: 6.00 Build 0)  -->
<svg version="1.1" id="Layer_1" xmlns="http://www.w3.org/2000/svg" xmlns:xlink="http://www.w3.org/1999/xlink" x="0px" y="0px"
	 viewBox="0 -142.8 240.4 369.2" style="enable-background:new 0 -142.8 240.4 369.2;" xml:space="preserve">
<style type="text/css">
	.st0{fill:#EA8E10;}
	.st1{fill:#231F20;}
	.st2{fill:#F5A909;}
	.st3{fill:#5E5759;}
	.st4{fill:#61E2DC;stroke:#4D4947;stroke-width:6;}
	.st5{fill:#D0D0D0;stroke:#231F20;stroke-width:4;}
	.st6{fill:#FFFFFF;stroke:#231F20;stroke-width:2;}
	.st7{fill:none;stroke:#4D4947;stroke-width:5;}
	.st8{fill:#48B596;stroke:#4D4947;stroke-width:5;}
	.st9{fill:#FFFFFF;}
	.st10{fill:none;stroke:#13110C;stroke-width:6;}
	.st11{fill:#E30613;stroke:#DD1215;stroke-width:0.2339;}
	.st12{clip-path:url(#SVGID_2_);}
	.st13{fill:#030302;}
	.st14{fill:#FDB725;}
	.st15{fill:#FCB725;}
	.st16{fill:#FEFEFE;}
	.st17{fill:#FCB625;}
	.st18{fill:#FBB625;}
	.st19{fill:#050301;}
	.st20{fill:#050401;}
	.st21{fill:#111211;}
	.st22{fill:#1B1918;}
	.st23{fill:#0097C9;}
	.st24{fill:#0263C9;}
	.st25{fill:#F9F9F9;}
	.st26{fill:#F9CEBC;}
	.st27{fill:#F8CDBB;}
	.st28{fill:#F2C200;}
	.st29{fill:#CAA100;}
	.st30{fill:#006F94;}
	.st31{fill:#014995;}
	.st32{fill:#F6CCB9;}
	.st33{fill:#99DC7B;}
	.st34{fill:#39781B;}
	.st35{fill:#B8988B;}
	.st36{fill:#B9B9B9;}
	.st37{fill:#0094C5;}
	.st38{fill:#B7978A;}
	.st39{fill:#006D92;}
	.st40{fill:#0091C2;}
	.st41{fill:#4DA025;}
	.st42{fill:#B29386;}
	.st43{fill:#6FA159;}
	.st44{fill:#E7E7E7;}
	.st45{fill:#EB0000;}
	.st46{fill:#DCB6A6;}
	.st47{fill:#150E0D;}
	.st48{fill:#962626;}
	.st49{fill:#B32D2D;}
	.st50{fill:none;}
</style>
<defs>
	
	<script  language="JavaScript" xlink:href="svg.js"></script>
</defs>
<script  type="text/JavaScript">
	<![CDATA[
function notify( ref, type ) {
    var event = document.createEvent("CustomEvent");
    event.initEvent(type,true,true);
    ref.dispatchEvent(event);
}

		
		
		
		
		
		
		
		
		
		
		
		]]>
</script>
<g>
	<g>
		<g>
			<path class="st0" d="M168,16.7c-13.3-2-30.5-3.2-49.4-3.2c-17.4,0-33.4,1-46.2,2.8v24.2H36.6v93.1h167.1V40.9H168V16.7L168,16.7z
				"/>
		</g>
		<path class="st1" d="M168,47.9V16.8c18.3,3.2,30.1,8.2,30.1,13.8c3.1,0,5.6,2.6,5.6,5.8v11.5H168z"/>
		<path class="st1" d="M72.4,47.4V16.3c-18.3,3.2-30.1,8.2-30.1,13.8c-3.1,0-5.6,2.6-5.6,5.8v11.5L72.4,47.4L72.4,47.4z"/>
	</g>
	<path class="st2" d="M213.1,132.8c-4.2-4.2-12.8-4.5-19.1-8.1c-25.6-14.4-43.3-19-73.2-19c-0.2,0-0.4,0-0.6,0c-0.2,0-0.4,0-0.6,0
		c-29.9,0-47.6,4.6-73.2,19c-6.4,3.6-14.9,3.9-19.1,8.1c-12,12-4.4,38-4.4,38c0,0.7,0.6,1.2,1.2,1.2h96h96c0.7,0,1.2-0.6,1.2-1.2
		C217.5,170.8,225.1,144.8,213.1,132.8z"/>
	<path class="st2" d="M143.3,14.2c0-2.9-9.3-9.3-23.2-9.3c-13.9,0-23,6.5-23,9.3"/>
	<path class="st3" d="M216,172h-18.5h-39.8H81.9H42.7H24.4c-0.7,0-1.3,0.8-1.3,1.9l3.5,8.5c0,1.1,0.6,2,1.3,2h13.4v26.1
		c0,0.9,0.6,1.5,1.4,1.5h39.2c0.8,0,1.4-0.7,1.4-1.5v-16.3h72.9v16.3c0,0.9,0.6,1.5,1.4,1.5h39.8c0.8,0,1.4-0.7,1.4-1.5v-26.1h13.6
		c0.7,0,1.3-0.9,1.3-2l3.5-8.5C217.3,172.8,216.7,172,216,172z"/>
	<path class="st4" d="M162.7,155.4c0,3.9-3.2,7.1-7.1,7.1H84.8c-3.9,0-7.1-3.2-7.1-7.1v-26.6c0-3.9,3.2-7.1,7.1-7.1h70.8
		c3.9,0,7.1,3.2,7.1,7.1V155.4L162.7,155.4z"/>
	<path class="st5" d="M213.4,147.8c0,8.4-6.8,15.3-15.3,15.3c-8.4,0-15.2-6.8-15.2-15.3c0-8.4,6.8-15.3,15.2-15.3
		C206.6,132.5,213.4,139.4,213.4,147.8z"/>
	<path class="st6" d="M207.6,147.8c0,5.2-4.2,9.4-9.4,9.4c-5.2,0-9.4-4.2-9.4-9.4c0-5.2,4.2-9.4,9.4-9.4
		C203.3,138.3,207.6,142.6,207.6,147.8z"/>
	<path class="st5" d="M57.6,147.8c0,8.4-6.8,15.3-15.3,15.3c-8.4,0-15.2-6.8-15.2-15.3c0-8.4,6.8-15.3,15.2-15.3
		C50.8,132.5,57.6,139.4,57.6,147.8z"/>
	<path class="st6" d="M51.8,147.8c0,5.2-4.2,9.4-9.4,9.4c-5.2,0-9.4-4.2-9.4-9.4c0-5.2,4.2-9.4,9.4-9.4
		C47.5,138.3,51.8,142.6,51.8,147.8z"/>
	<line class="st7" x1="79.8" y1="138.5" x2="160.6" y2="138.5"/>
	<line class="st8" x1="79.8" y1="130.1" x2="160.6" y2="130.1"/>
	<line class="st7" x1="79.8" y1="146.9" x2="160.6" y2="146.9"/>
	<line class="st7" x1="79.8" y1="155.3" x2="160.6" y2="155.3"/>
	<g>
		<path class="st9" d="M115.5,91.8c0,0.7-0.6,1.2-1.2,1.2H43.6c-0.7,0-1.2-0.6-1.2-1.2V57.4c0-0.7,0.6-1.3,1.2-1.3h70.7
			c0.7,0,1.2,0.6,1.2,1.3V91.8z"/>
		<path class="st9" d="M198.1,91.8c0,0.7-0.6,1.2-1.2,1.2h-70.7c-0.7,0-1.3-0.6-1.3-1.2V57.4c0-0.7,0.6-1.3,1.3-1.3h70.7
			c0.7,0,1.2,0.6,1.2,1.3V91.8z"/>
	</g>
	<g>
		<path class="st1" d="M28.2,86.6c0,0.7-0.5,1.2-1.2,1.2H10.2c-0.7,0-1.2-0.6-1.2-1.2v-24c0-0.7,0.6-1.2,1.2-1.2H27
			c0.7,0,1.2,0.6,1.2,1.2V86.6z"/>
		<path class="st10" d="M18.6,87.8c0,5.8,8,10.4,17.9,10.4"/>
	</g>
	<g>
		<path class="st1" d="M212.1,86.6c0,0.7,0.6,1.2,1.2,1.2h16.8c0.7,0,1.2-0.6,1.2-1.2v-24c0-0.7-0.6-1.2-1.2-1.2h-16.8
			c-0.7,0-1.2,0.6-1.2,1.2V86.6z"/>
		<path class="st10" d="M221.8,87.8c0,5.8-8,10.4-17.9,10.4"/>
	</g>
	<path class="st11" d="M173.4,34.7c0,5.9,4.7,10.6,10.6,10.6c5.9,0,10.6-4.7,10.6-10.6c0-5.8-4.7-10.6-10.6-10.6
		C178.2,24.1,173.4,28.8,173.4,34.7z"/>
	<path class="st11" d="M44.6,34.7c0,5.9,4.7,10.6,10.6,10.6c5.9,0,10.6-4.7,10.6-10.6c0-5.8-4.8-10.6-10.6-10.6
		C49.3,24.1,44.6,28.8,44.6,34.7z"/>
	<g>
		<defs>
			<rect id="SVGID_1_" x="123" y="51.1" width="77" height="41.9"/>
		</defs>
		<clipPath id="SVGID_2_">
			<use xlink:href="#SVGID_1_"  style="overflow:visible;"/>
		</clipPath>
		<g class="st12">
			<g>
				<path class="st13" d="M144.7,91.5c-0.1-0.6-0.2-1.2-0.3-1.8c-0.1-0.9-0.2-1.9-0.1-2.8c0.2-2.3,0.8-4.5,1.5-6.6
					c0.1-0.2,0-0.3,0-0.5c0-1.7,0-3.3,0-5c0-1.2,0.1-2.4,0.3-3.6c0.2-1.4,0.4-2.8,0.8-4.1c0.4-1.5,1.2-2.8,2-4.1
					c1.5-2.2,3.5-3.7,5.8-4.8c1.5-0.7,3-1.1,4.6-1.5c0.9-0.2,1.8-0.3,2.8-0.4c0.8,0,1.5,0,2.3,0c0.9,0.1,1.7,0.2,2.6,0.3
					c2.1,0.3,4.1,0.7,6.1,1.6c1.7,0.8,3.2,1.9,4.5,3.2c0.6,0.6,1.1,1.3,1.5,2.1c0.1,0.2,0.3,0.4,0.6,0.4c0.8,0.2,1.5,0.4,2.1,0.9
					c1.2,0.9,1.9,2.1,2.1,3.5c0.2,1.2,0.1,2.4-0.4,3.6c-0.5,1.2-1.3,2.1-2.5,2.7c-0.1,0-0.1,0.1-0.1,0.2c0,0.9,0,1.7,0,2.6
					c0,0,0,0.1,0,0.1c1.4,2.1,2.6,4.3,3.4,6.7c0.3,1,0.6,2,0.8,3c0.1,1,0.2,1.9,0,2.9c-0.3,1.2-1.3,2.1-2.6,2.1c-1,0-2-0.3-2.8-0.9
					c0,0-0.1-0.1-0.1-0.1c-0.1,0.5-0.2,0.9-0.3,1.4c-0.3,1.1-0.5,2.2-1,3.3c-0.5,1.3-1.3,2.4-2.1,3.4c-0.5,0.6-1.2,1.1-1.9,1.6
					c-0.1,0.1-0.2,0.2-0.1,0.3c0.3,1.2,0.5,2.3,0.7,3.5c0.2,1.6,0.3,3.1,0.2,4.7c-0.1,1.5-0.3,3-0.6,4.4c-0.1,0.4-0.2,0.8-0.3,1.2
					c0,0.1,0,0.2,0.1,0.2c0.4,0.1,0.8,0.3,1.1,0.5c0.3,0.2,0.6,0.4,0.7,0.8c0.1,0.4,0,0.7-0.3,1c-0.3,0.3-0.7,0.5-1.2,0.5
					c-1.2,0-2.3-0.3-3.3-0.8c-0.5-0.3-0.6-0.7-0.5-1.2c0.4-1.5,0.8-3,1-4.6c0.2-1.5,0.2-3,0.2-4.5c0-0.8-0.1-1.5-0.1-2.3
					c-0.1-0.8-0.3-1.5-0.6-2.3c0-0.1,0-0.1-0.1-0.2c-0.3,0.1-0.6,0.3-0.9,0.4c-1.1,0.5-2.2,0.7-3.4,0.9c-1.7,0.3-3.4,0.3-5.2,0.2
					c-0.9-0.1-1.8-0.1-2.7-0.3c-1-0.1-1.9-0.5-2.9-0.8c-0.1,0-0.1,0-0.2-0.1c0,0.1,0.1,0.3,0.1,0.4c0.2,0.9,0.4,1.7,0.6,2.6
					c0.2,0.9,0.2,1.9,0.2,2.9c0,0.8,0,1.6-0.1,2.5c-0.1,1.1-0.2,2.1-0.5,3.2c-0.2,0.8-0.4,1.6-0.6,2.4c0,0,0,0,0,0.1
					c0.2,0.1,0.4,0.2,0.7,0.4c0.3,0.2,0.5,0.4,0.7,0.6c0.5,0.6,0.4,1.4-0.2,1.8c-0.4,0.3-0.9,0.4-1.4,0.3c-1.1-0.1-2-0.5-2.8-1.1
					c-0.4-0.3-0.6-0.6-0.5-1.1c0-0.3,0.1-0.5,0.2-0.8c0.2-0.4,0.4-0.8,0.5-1.3c0.3-1,0.4-1.9,0.5-2.9c0.1-1.3,0.1-2.7,0.1-4
					c-0.1-1.9-0.5-3.7-1.2-5.4c-0.2-0.4-0.3-0.9-0.5-1.3c0-0.1-0.1-0.2-0.2-0.2c-1-0.8-2-1.7-2.9-2.6c-0.9-1-1.7-2-2.3-3.2
					c0-0.1-0.1-0.1-0.2-0.1c-1.3-0.2-2.2-0.9-2.9-2c-0.4-0.5-0.5-1.1-0.7-1.7c-0.1-0.3-0.2-0.6-0.3-0.8c-0.2-0.5-0.4-0.9-0.7-1.3
					c0-0.1,0-0.1-0.1-0.2c0.1,0,0.2-0.1,0.2,0c0.9,0.1,1.5,0.6,2,1.2c0.1,0.2,0.3,0.3,0.4,0.5C144.1,91.3,144.4,91.4,144.7,91.5z
					 M141.7,89.6C141.7,89.6,141.7,89.5,141.7,89.6C141.7,89.5,141.7,89.6,141.7,89.6c0.2,0.3,0.4,0.5,0.6,0.8
					c0.3,0.6,0.5,1.2,0.7,1.7c0.4,1.2,1.2,2,2.3,2.6c0.2,0.1,0.4,0.2,0.7,0.2c0-0.1,0-0.1,0-0.1c-0.4-0.9-0.7-1.9-1-2.8
					c0-0.1-0.1-0.1-0.2-0.1c-0.6-0.1-1.1-0.5-1.4-1c-0.2-0.3-0.5-0.6-0.8-0.9c-0.2-0.2-0.5-0.3-0.7-0.4
					C141.8,89.6,141.7,89.6,141.7,89.6z M171.3,101.9c0,0,0,0.1,0,0.1c0.5,1.2,0.7,2.5,0.7,3.7c0,1.1,0,2.2,0,3.3
					c0,1.1-0.1,2.1-0.3,3.2c-0.2,1.3-0.6,2.6-0.9,3.9c-0.1,0.3,0,0.5,0.2,0.7c0,0,0.1,0,0.1,0.1c1,0.5,2,0.7,3.1,0.8
					c0.4,0,0.7-0.1,0.9-0.4c0.3-0.3,0.3-0.7-0.1-1c-0.1-0.1-0.2-0.2-0.4-0.2c-0.3-0.1-0.7-0.3-1-0.4c-0.4-0.2-0.5-0.3-0.4-0.7
					c0.1-0.3,0.2-0.6,0.3-0.9c0.4-1.7,0.7-3.5,0.7-5.2c0.1-2-0.1-4-0.5-6c-0.1-0.6-0.3-1.2-0.4-1.8c0-0.2,0-0.2,0.1-0.3
					c0.7-0.4,1.3-0.9,1.9-1.5c1-1.2,1.9-2.5,2.4-3.9c0.5-1.4,0.8-2.8,1.1-4.2c0,0,0-0.1-0.1-0.1c-0.6-0.5-1.2-1-1.9-1.5
					c-0.6-0.5-1.1-1-1.7-1.5c-0.2-0.2-0.5-0.2-0.8,0c-0.2,0.1-0.3,0.2-0.4,0.3c-0.2,0.1-0.3,0.2-0.5,0.3c-0.4,0.2-0.8,0.1-0.9-0.4
					c0,0-0.1-0.1-0.1-0.1c-0.4-0.1-0.5-0.3-0.5-0.7c0-0.1,0-0.1-0.1-0.2c-0.3-0.3-0.3-0.6-0.1-1c0.1-0.2,0.2-0.3,0.4-0.4
					c0.7-0.6,1.4-1,2.4-0.8c0.7,0.1,1.3,0.3,1.9,0.7c0.9,0.7,1.8,1.4,2.7,2c0,0,0.1,0.1,0.1,0.1c0.6-4.3,0.8-8.5,0.7-12.8
					c-1.1,0.4-2.3,0.4-3.4-0.1c0,0,0,0.1,0,0.1c-0.1,0.4-0.2,0.9-0.3,1.3c-0.4,1.1-1.1,1.8-2.3,1.8c-0.8,0-1.5-0.2-2-0.9
					c-0.3-0.4-0.5-0.9-0.7-1.4c0-0.1,0-0.2-0.1-0.3c-1.1,0.7-2.2,0.7-3.3,0.1c-0.1,0.2-0.1,0.4-0.1,0.6c-0.2,0.7-0.4,1.3-1,1.7
					c-1.1,0.8-2.6,1-3.9,0c-0.6-0.5-1-1.1-1.2-1.8c-0.1-0.3-0.1-0.6-0.2-0.9c0,0-0.1,0.1-0.1,0.1c-0.4,0.3-0.8,0.5-1.3,0.6
					c-1.1,0.3-2.3,0.3-3.5,0c-1.7-0.4-3.1-1.3-3.9-2.9c-0.5-1-0.7-2.1-0.8-3.2c0-0.7,0.2-1.4,0.4-2c0.5-1.4,1.4-2.5,2.8-3.2
					c1.5-0.7,3-0.9,4.6-0.5c1.7,0.4,3,1.4,3.8,2.9c0.2,0.3,0.3,0.7,0.5,1c0,0,0.1,0,0.1-0.1c0.7-0.5,1.5-1,2.3-1.3
					c0.9-0.3,1.8-0.4,2.8-0.4c1,0,2.1,0,3.1,0.4c0.4,0.1,0.8,0.3,1.1,0.4c0.1-0.5,0.4-0.9,0.7-1.3c0.8-1.2,2-1.8,3.4-1.9
					c0.3,0,0.7,0,1-0.1c0,0,0,0,0-0.1c-0.5-0.8-1-1.6-1.7-2.3c-1-0.9-2.1-1.7-3.2-2.4c-1.8-1-3.7-1.5-5.7-1.8
					c-0.8-0.1-1.6-0.2-2.4-0.3c-0.9-0.1-1.7-0.2-2.6-0.2c-1.1,0-2.1,0.1-3.1,0.3c-1.4,0.3-2.8,0.6-4.1,1.1c-3,1.2-5.4,3.1-7.1,5.9
					c-0.7,1.2-1.3,2.5-1.6,3.9c-0.2,0.9-0.3,1.8-0.5,2.7c-0.2,1.2-0.3,2.4-0.3,3.5c0,2,0,4,0,5.9c0,0.1,0,0.2,0,0.3
					c-0.7,2-1.2,4-1.4,6.1c-0.1,1.1-0.1,2.1,0,3.2c0.2,1.2,0.5,2.4,0.8,3.6c0.7,2.2,1.8,4.1,3.5,5.7c0.8,0.8,1.7,1.5,2.5,2.2
					c0.1,0.1,0.2,0.2,0.3,0.4c0.1,0.3,0.2,0.6,0.4,1c0.8,1.9,1.3,4,1.3,6.1c0,1.8,0,3.6-0.3,5.4c-0.2,1-0.4,2-0.9,3
					c-0.1,0.2-0.1,0.4-0.2,0.6c0,0.3,0,0.5,0.3,0.6c0.1,0,0.1,0.1,0.2,0.1c0.8,0.6,1.7,0.9,2.7,1c0.4,0,0.8-0.1,1.1-0.4
					c0.2-0.2,0.3-0.4,0.3-0.7c0-0.3-0.2-0.4-0.3-0.6c-0.3-0.3-0.8-0.5-1.2-0.7c-0.2-0.1-0.3-0.2-0.2-0.4c0.2-0.7,0.4-1.5,0.6-2.2
					c0.3-1.1,0.5-2.2,0.5-3.4c0.1-1.1,0.1-2.1,0.1-3.2c0-1-0.1-1.9-0.3-2.8c-0.2-0.8-0.4-1.6-0.7-2.5c0-0.1,0-0.2,0-0.2
					c0.1,0,0.2-0.1,0.2,0c1.8,0.6,3.5,1.1,5.4,1.2c1.5,0.1,2.9,0.1,4.4,0c1.1-0.1,2.2-0.3,3.3-0.6c1.1-0.3,2.2-0.7,3.3-1.2
					c0,0,0.1,0,0.1,0c0,0,0.1,0,0.1,0c0,0,0,0.1,0,0.1c0,0-0.1,0.1-0.1,0.1C171.7,101.6,171.5,101.7,171.3,101.9z M170.3,69.9
					c0.3,0,0.8,0,1.3,0.2c0.6,0.2,0.9,0.6,1,1.3c0.1,0.6-0.2,1.1-0.7,1.3c0,0,0,0,0,0c-0.1,0-0.1,0.1-0.1,0.1
					c0.1,0.6,0.1,1.2,0.2,1.8c0.1,0.7,0.3,1.3,0.6,1.9c0.1,0.2,0.3,0.4,0.5,0.6c0.8,0.5,1.8,0.4,2.5-0.3c0.5-0.4,0.7-1,0.9-1.6
					c0.2-0.8,0.2-1.6,0.2-2.4c-0.1-1.4-0.5-2.6-1.2-3.8c-0.8-1.1-1.8-1.9-3.1-2.3c-1.2-0.4-2.4-0.4-3.7-0.3
					c-1.3,0.1-2.4,0.5-3.5,1.2c-1,0.7-1.8,1.5-2.2,2.6c-0.4,1-0.7,2-0.8,3c-0.1,0.9,0,1.8,0.3,2.7c0.5,1.6,2.1,2.2,3.3,1.9
					c0.9-0.2,1.5-0.7,1.9-1.5c0.1-0.4,0.2-0.8,0.3-1.2c0.1-0.7,0.1-1.5,0.1-2.2c0,0,0-0.1-0.1-0.1c-0.1-0.1-0.3-0.2-0.4-0.4
					c-0.5-0.6-0.5-1.3,0.1-1.9c0.2-0.2,0.4-0.3,0.6-0.4C168.8,70,169.4,69.9,170.3,69.9z M154.3,69.6c0,0.1,0,0.2,0,0.3
					c0,0.6,0.1,1.3,0.4,1.9c0.5,1.1,1.2,2,2.2,2.5c0.8,0.4,1.7,0.5,2.6,0.5c0.8-0.1,1.5-0.3,2.1-0.8c0,0,0.1-0.1,0.1-0.1
					c0-0.8,0.2-1.5,0.4-2.2c0.3-1.2,0.9-2.4,1.7-3.3c0,0,0-0.1,0-0.1c-0.1-0.3-0.2-0.5-0.3-0.8c-0.5-1.2-1.3-2-2.4-2.6
					c-0.1,0-0.2-0.1-0.2-0.1c-0.8-0.2-1.5-0.2-2.3-0.1c-0.8,0.1-1.6,0.4-2.2,0.9C155,66.5,154.3,67.9,154.3,69.6z M183.4,69.3
					c0-0.1,0-0.2,0-0.3c0-0.1,0-0.2,0-0.3c-0.1-1.4-0.7-2.6-1.8-3.5c-0.7-0.6-1.5-0.9-2.4-0.9c-0.2,0-0.4,0-0.6,0.1
					c-1.4,0.3-3.3,1.4-3.6,3.5c0,0,0,0.1,0,0.1c1.2,1.3,1.9,2.8,2,4.6c0,0.1,0,0.2,0.1,0.2c0.6,0.6,1.4,0.9,2.2,1
					c0.8,0.1,1.6-0.1,2.4-0.4c0,0,0.1,0,0.1-0.1c0.4-0.4,0.7-0.8,1-1.2C183.2,71.3,183.4,70.3,183.4,69.3z M172.5,86.7
					C172.5,86.7,172.5,86.6,172.5,86.7c0.4-0.3,0.8-0.5,1.1-0.7c0,0,0.1,0,0.2,0c0,0.1,0,0.1-0.1,0.2c-0.1,0.1-0.3,0.2-0.4,0.3
					c-0.2,0.1-0.3,0.3-0.5,0.5c-0.1,0.1-0.2,0.3-0.1,0.5c0,0.1,0.1,0.1,0.2,0.1c0,0,0.1,0,0.1-0.1c0.3-0.3,0.6-0.5,1-0.7
					c0,0,0.1,0,0.2,0c0,0,0,0.1-0.1,0.1c-0.1,0.1-0.3,0.2-0.4,0.3c-0.2,0.2-0.3,0.4-0.5,0.6c0,0.1,0,0.2,0,0.3c0,0,0.1,0,0.2,0
					c0.1,0,0.1-0.1,0.2-0.1c0.2-0.2,0.5-0.3,0.7-0.5c0.4-0.3,0.8-0.3,1.2,0.1c0.4,0.3,0.8,0.7,1.2,1c0.9,0.8,1.9,1.6,2.9,2.3
					c0.7,0.5,1.6,0.8,2.4,0.8c1.1,0.1,2.1-0.7,2.3-1.7c0.2-0.7,0.1-1.5,0.1-2.2c-0.1-0.8-0.3-1.7-0.5-2.5c-0.7-2.5-1.8-4.9-3.3-7.1
					c0,0,0,0,0-0.1c0,0,0,0,0,0c0,1.2-0.1,2.5-0.1,3.7c0,0.2,0,0.3,0.1,0.4c0.2,0.4,0.4,0.8,0.6,1.3c0.4,0.9,0.8,1.7,1,2.6
					c0.2,0.6,0.3,1.2,0.3,1.9c-0.1,0.8-0.6,1.2-1.4,1c-0.4-0.1-0.7-0.3-1.1-0.5c-0.4-0.3-0.7-0.5-1.1-0.8c-0.9-0.7-1.8-1.3-2.6-2
					c-0.6-0.5-1.4-0.6-2.1-0.6c-0.7,0-1.3,0.4-1.8,1c0,0-0.1,0.1-0.1,0.2C172.3,86.4,172.4,86.6,172.5,86.7z M180.6,82.9
					C180.5,82.9,180.5,82.9,180.6,82.9c0,0.2-0.1,0.4-0.1,0.6c-0.1,0.7-0.1,1.4-0.2,2.1c-0.1,0.8-0.2,1.5-0.3,2.3c0,0,0,0.1,0.1,0.1
					c0.2,0.1,0.3,0.2,0.5,0.4c0.3,0.2,0.6,0.3,0.9,0.4c0.4,0.1,0.6-0.1,0.7-0.5c0-0.1,0-0.3,0-0.4c0-0.5-0.1-1-0.2-1.4
					c-0.2-0.9-0.6-1.7-1-2.6C180.8,83.5,180.7,83.2,180.6,82.9z M171.3,72.9c-0.9,0.2-1.9,0.3-2.9,0.1c0,0.7-0.1,1.4-0.1,2
					c1.1,0.4,2.2,0.4,3.2-0.1C171.5,74.3,171.4,73.6,171.3,72.9z"/>
				<path class="st14" d="M171.3,101.9c0.2-0.1,0.4-0.3,0.6-0.4c0,0,0.1-0.1,0.1-0.1c0,0,0-0.1,0-0.1c0,0-0.1,0-0.1,0
					c0,0-0.1,0-0.1,0c-1.1,0.5-2.2,0.9-3.3,1.2c-1.1,0.3-2.2,0.5-3.3,0.6c-1.5,0.1-2.9,0.1-4.4,0c-1.9-0.1-3.7-0.5-5.4-1.2
					c-0.1,0-0.2,0-0.2,0c-0.1,0.1-0.1,0.2,0,0.2c0.2,0.8,0.5,1.6,0.7,2.5c0.2,0.9,0.3,1.9,0.3,2.8c0,1.1,0,2.1-0.1,3.2
					c-0.1,1.1-0.3,2.3-0.5,3.4c-0.2,0.7-0.4,1.5-0.6,2.2c-0.1,0.3-0.1,0.3,0.2,0.4c0.4,0.2,0.8,0.4,1.2,0.7c0.2,0.2,0.3,0.4,0.3,0.6
					c0,0.3-0.1,0.5-0.3,0.7c-0.3,0.3-0.7,0.4-1.1,0.4c-1-0.1-1.9-0.4-2.7-1c-0.1,0-0.1-0.1-0.2-0.1c-0.2-0.2-0.3-0.4-0.3-0.6
					c0-0.2,0.1-0.5,0.2-0.6c0.5-0.9,0.7-1.9,0.9-3c0.3-1.8,0.3-3.6,0.3-5.4c-0.1-2.1-0.5-4.1-1.3-6.1c-0.1-0.3-0.3-0.6-0.4-1
					c-0.1-0.1-0.1-0.3-0.3-0.4c-0.8-0.7-1.7-1.4-2.5-2.2c-1.7-1.6-2.8-3.5-3.5-5.7c-0.4-1.2-0.7-2.3-0.8-3.6c-0.1-1.1-0.1-2.1,0-3.2
					c0.3-2.1,0.8-4.1,1.4-6.1c0-0.1,0-0.2,0-0.3c-0.1-2-0.1-4,0-5.9c0-1.2,0.1-2.4,0.3-3.5c0.2-0.9,0.3-1.8,0.5-2.7
					c0.3-1.4,0.9-2.6,1.6-3.9c1.7-2.8,4.1-4.7,7.1-5.9c1.3-0.5,2.7-0.9,4.1-1.1c1-0.2,2.1-0.3,3.1-0.3c0.9,0,1.7,0.1,2.6,0.2
					c0.8,0.1,1.6,0.2,2.4,0.3c2,0.3,3.9,0.8,5.7,1.8c1.2,0.7,2.3,1.5,3.2,2.4c0.7,0.7,1.2,1.5,1.7,2.3c0,0,0,0,0,0.1
					c-0.3,0-0.7,0-1,0.1c-1.4,0.1-2.6,0.7-3.4,1.9c-0.3,0.4-0.5,0.8-0.7,1.3c-0.4-0.2-0.8-0.3-1.1-0.4c-1-0.3-2-0.4-3.1-0.4
					c-0.9,0-1.9,0.1-2.8,0.4c-0.8,0.3-1.6,0.7-2.3,1.3c0,0-0.1,0-0.1,0.1c-0.2-0.3-0.3-0.7-0.5-1c-0.8-1.5-2.1-2.6-3.8-2.9
					c-1.6-0.4-3.1-0.2-4.6,0.5c-1.4,0.7-2.3,1.8-2.8,3.2c-0.2,0.7-0.4,1.3-0.4,2c0,1.1,0.2,2.2,0.8,3.2c0.8,1.6,2.2,2.5,3.9,2.9
					c1.2,0.2,2.3,0.3,3.5,0c0.5-0.1,0.9-0.3,1.3-0.6c0,0,0.1-0.1,0.1-0.1c0.1,0.3,0.1,0.6,0.2,0.9c0.2,0.7,0.6,1.4,1.2,1.8
					c1.3,1,2.9,0.8,3.9,0c0.6-0.4,0.9-1,1-1.7c0-0.2,0.1-0.4,0.1-0.6c1.1,0.6,2.2,0.5,3.3-0.1c0,0.1,0,0.2,0.1,0.3
					c0.1,0.5,0.4,1,0.7,1.4c0.5,0.7,1.2,0.9,2,0.9c1.2-0.1,1.9-0.8,2.3-1.8c0.2-0.4,0.2-0.8,0.3-1.3c0,0,0-0.1,0-0.1
					c1.1,0.5,2.2,0.5,3.4,0.1c0.1,4.3-0.1,8.6-0.7,12.8c-0.1,0-0.1-0.1-0.1-0.1c-0.9-0.7-1.8-1.3-2.7-2c-0.6-0.4-1.2-0.6-1.9-0.7
					c-1-0.1-1.7,0.2-2.4,0.8c-0.1,0.1-0.3,0.3-0.4,0.4c-0.2,0.4-0.2,0.6,0.1,1c0,0,0.1,0.1,0.1,0.2c0,0.4,0.1,0.6,0.5,0.7
					c0,0,0.1,0.1,0.1,0.1c0.1,0.5,0.4,0.6,0.9,0.4c0.2-0.1,0.3-0.2,0.5-0.3c0.1-0.1,0.3-0.2,0.4-0.3c0.3-0.2,0.5-0.2,0.8,0
					c0.6,0.5,1.1,1,1.7,1.5c0.6,0.5,1.2,1,1.9,1.5c0,0,0.1,0.1,0.1,0.1c-0.3,1.4-0.6,2.9-1.1,4.2c-0.5,1.5-1.4,2.8-2.4,3.9
					c-0.5,0.6-1.2,1.1-1.9,1.5c-0.1,0.1-0.2,0.1-0.1,0.3c0.1,0.6,0.3,1.2,0.4,1.8c0.4,2,0.6,4,0.5,6c-0.1,1.8-0.3,3.5-0.7,5.2
					c-0.1,0.3-0.2,0.6-0.3,0.9c-0.1,0.4,0,0.6,0.4,0.7c0.3,0.1,0.7,0.3,1,0.4c0.1,0.1,0.3,0.1,0.4,0.2c0.3,0.3,0.3,0.7,0.1,1
					c-0.3,0.3-0.6,0.4-0.9,0.4c-1.1,0-2.1-0.3-3.1-0.8c0,0-0.1,0-0.1-0.1c-0.2-0.2-0.3-0.4-0.2-0.7c0.4-1.3,0.7-2.6,0.9-3.9
					c0.2-1,0.3-2.1,0.3-3.2c0-1.1,0-2.2,0-3.3c0-1.3-0.2-2.5-0.7-3.7C171.3,102,171.3,101.9,171.3,101.9z M163.4,87.5
					c0.4-0.1,0.6-0.2,0.5-0.7c0-0.2-0.1-0.5-0.2-0.7c-0.2-0.5-0.6-0.8-1-1.1c-0.4-0.4-0.9-0.4-1.4-0.1c-0.5,0.3-1.1,0.6-1.6,1
					c-1.7,1.1-3.4,2.2-5.1,3.3c-0.1,0.1-0.2,0.1-0.3,0.2c-0.2,0.1-0.3,0-0.3-0.2c0-0.1,0-0.2-0.1-0.3c-0.2-1.3-0.3-2.7-0.5-4
					c-0.1-1.3-0.3-2.5-0.4-3.8c0-0.1,0-0.2,0-0.4c0,0-0.1-0.1-0.1-0.1c0,0-0.1,0.1-0.1,0.1c0,0,0,0.1,0,0.1c0.1,1.1,0.1,2.1,0.2,3.2
					c0,0.5,0.1,1.1,0.1,1.6c0.1,0.7,0.2,1.5,0.3,2.2c0.1,0.5,0.1,1,0.2,1.5c0.1,0.4,0.4,0.6,0.8,0.5c0.2-0.1,0.4-0.2,0.5-0.3
					c1.6-1.1,3.2-2.2,4.9-3.2c0.6-0.4,1.2-0.7,1.8-1.1c0.3-0.1,0.5-0.1,0.7,0.1c0.3,0.2,0.6,0.5,0.8,0.8c0.2,0.2,0.4,0.5,0.4,0.9
					c0,0,0,0.1-0.1,0.1c-0.1,0-0.1,0.1-0.2,0c-0.2-0.2-0.4-0.4-0.5-0.6c0,0-0.1,0-0.1,0c0,0,0,0.1,0,0.1c0.1,0.1,0.2,0.2,0.3,0.3
					c0.2,0.3,0.2,0.5,0.1,0.8c0,0-0.1,0.1-0.1,0.1c-0.1,0-0.2,0-0.3-0.1c-0.1-0.2-0.3-0.5-0.4-0.7c0,0-0.1,0-0.1-0.1
					c0,0.1,0,0.1,0,0.2c0.1,0.2,0.2,0.4,0.3,0.6c0.1,0.2,0.1,0.4,0,0.6c-0.1,0.1-0.2,0.1-0.3,0c-0.2-0.2-0.3-0.3-0.5-0.5
					c-0.2-0.2-0.4-0.3-0.7-0.1c-0.1,0.1-0.2,0.2-0.4,0.3c-0.9,0.7-1.7,1.5-2.6,2.2c-0.8,0.7-1.6,1.3-2.5,1.8
					c-0.5,0.3-1.1,0.5-1.8,0.5c-0.5,0-0.9-0.1-1.3-0.4c-0.3-0.3-0.5-0.6-0.6-1c-0.4-1.1-0.6-2.2-0.7-3.4c-0.2-1.3-0.3-2.6-0.5-3.8
					c-0.1-1.3-0.2-2.7-0.4-4c0,0-0.1-0.1-0.1-0.1c0,0-0.1,0.1-0.1,0.1c0,0.6,0.1,1.2,0.1,1.8c0,0.9,0.1,1.9,0.2,2.8
					c0,0.7,0.1,1.4,0.2,2c0.1,1,0.3,2.1,0.5,3.1c0.1,0.7,0.3,1.4,0.6,2c0.2,0.5,0.5,0.8,1,1c0.5,0.2,1,0.3,1.5,0.3
					c0.7-0.1,1.3-0.3,1.8-0.7c1.1-0.7,2.1-1.5,3.1-2.4c0.7-0.6,1.5-1.2,2.2-1.9c0.1-0.1,0.1-0.1,0.2,0c0.2,0.2,0.3,0.4,0.5,0.5
					c0.2,0.2,0.5,0.2,0.7,0c0.1-0.1,0.2-0.3,0.3-0.4C163.2,88.2,163.3,88.1,163.4,87.5z M150.9,72.9
					C150.9,72.9,150.9,72.9,150.9,72.9c0-0.3,0-0.5,0-0.8c0,0,0-0.1,0-0.1c0,0-0.1-0.1-0.1-0.1c0,0-0.1,0.1-0.1,0.1
					c0,0.1,0,0.2,0,0.3c0,0.5-0.1,1-0.1,1.5c-0.1,0.7-0.6,1.1-1.3,1c-0.5,0-0.9-0.3-1-0.8c-0.1-0.2-0.1-0.3-0.1-0.5
					c-0.1-0.5-0.1-1-0.1-1.4c0-0.1-0.1-0.1-0.1-0.2c0,0.1-0.1,0.1-0.1,0.2c0,0.3,0,0.6,0,0.9c0,0.5,0.1,1,0.2,1.4
					c0.2,0.4,0.4,0.6,0.8,0.7c0.1,0,0.2,0,0.4,0.1c1,0.1,1.5-0.5,1.7-1.3C150.9,73.6,150.9,73.3,150.9,72.9z"/>
				<path class="st15" d="M170.3,69.9c-0.9,0-1.5,0-2,0.3c-0.2,0.1-0.5,0.2-0.6,0.4c-0.6,0.5-0.6,1.3-0.1,1.9
					c0.1,0.1,0.3,0.2,0.4,0.4c0,0,0.1,0.1,0.1,0.1c0,0.7-0.1,1.5-0.1,2.2c0,0.4-0.2,0.8-0.3,1.2c-0.3,0.9-1,1.3-1.9,1.5
					c-1.2,0.3-2.8-0.3-3.3-1.9c-0.3-0.9-0.4-1.8-0.3-2.7c0.1-1,0.4-2,0.8-3c0.5-1.1,1.2-2,2.2-2.6c1.1-0.7,2.2-1.1,3.5-1.2
					c1.2-0.1,2.5-0.1,3.7,0.3c1.3,0.4,2.3,1.2,3.1,2.3c0.8,1.1,1.1,2.4,1.2,3.8c0,0.8,0,1.6-0.2,2.4c-0.2,0.6-0.4,1.2-0.9,1.6
					c-0.7,0.6-1.7,0.7-2.5,0.3c-0.2-0.1-0.4-0.3-0.5-0.6c-0.4-0.6-0.6-1.2-0.6-1.9c-0.1-0.6-0.1-1.2-0.2-1.8c0-0.1,0-0.1,0.1-0.1
					c0,0,0,0,0,0c0.5-0.3,0.8-0.7,0.7-1.3c-0.1-0.6-0.4-1-1-1.3C171.1,70,170.5,69.9,170.3,69.9z"/>
				<path class="st16" d="M154.3,69.6c0-1.7,0.7-3.1,2-4.1c0.7-0.5,1.4-0.7,2.2-0.9c0.8-0.1,1.5-0.1,2.3,0.1c0.1,0,0.2,0,0.2,0.1
					c1.1,0.6,1.9,1.5,2.4,2.6c0.1,0.2,0.2,0.5,0.3,0.8c0,0,0,0.1,0,0.1c-0.9,0.9-1.4,2-1.7,3.3c-0.2,0.7-0.4,1.5-0.4,2.2
					c0,0,0,0.1-0.1,0.1c-0.6,0.5-1.3,0.8-2.1,0.8c-0.9,0.1-1.8-0.1-2.6-0.5c-1.1-0.5-1.8-1.4-2.2-2.5c-0.3-0.6-0.3-1.2-0.4-1.9
					C154.3,69.8,154.3,69.7,154.3,69.6z"/>
				<path class="st16" d="M183.4,69.3c0,1-0.2,2-0.7,2.9c-0.2,0.5-0.6,0.9-1,1.2c0,0-0.1,0.1-0.1,0.1c-0.8,0.2-1.6,0.4-2.4,0.4
					c-0.8-0.1-1.6-0.3-2.2-1c-0.1-0.1-0.1-0.1-0.1-0.2c-0.1-1.8-0.8-3.3-2-4.6c0,0,0-0.1,0-0.1c0.3-2.1,2.2-3.2,3.6-3.5
					c0.2,0,0.4-0.1,0.6-0.1c0.9-0.1,1.7,0.3,2.4,0.9c1.1,0.9,1.7,2.1,1.8,3.5c0,0.1,0,0.2,0,0.3C183.4,69.1,183.4,69.2,183.4,69.3z"
					/>
				<path class="st17" d="M172.5,86.7c-0.1-0.1-0.1-0.2-0.1-0.4c0-0.1,0.1-0.1,0.1-0.2c0.5-0.6,1-1,1.8-1c0.8,0,1.5,0.1,2.1,0.6
					c0.9,0.7,1.8,1.3,2.6,2c0.4,0.3,0.7,0.5,1.1,0.8c0.3,0.2,0.7,0.4,1.1,0.5c0.8,0.2,1.3-0.2,1.4-1c0-0.7-0.1-1.3-0.3-1.9
					c-0.2-0.9-0.7-1.8-1-2.6c-0.2-0.4-0.4-0.9-0.6-1.3c-0.1-0.1-0.1-0.3-0.1-0.4c0-1.2,0.1-2.5,0.1-3.7c0,0,0,0,0,0c0,0,0,0,0,0.1
					c1.5,2.2,2.5,4.6,3.3,7.1c0.2,0.8,0.4,1.6,0.5,2.5c0.1,0.7,0.1,1.5-0.1,2.2c-0.2,1.1-1.3,1.8-2.3,1.7c-0.9-0.1-1.7-0.3-2.4-0.8
					c-1-0.7-2-1.5-2.9-2.3c-0.4-0.3-0.8-0.7-1.2-1c-0.4-0.3-0.8-0.3-1.2-0.1c-0.2,0.2-0.5,0.3-0.7,0.5c-0.1,0-0.1,0.1-0.2,0.1
					c-0.1,0-0.2,0-0.2,0c0-0.1-0.1-0.2,0-0.3c0.1-0.2,0.3-0.4,0.5-0.6c0.1-0.1,0.2-0.2,0.4-0.3c0,0,0-0.1,0.1-0.1
					c-0.1,0-0.1,0-0.2,0c-0.4,0.2-0.7,0.4-1,0.7c0,0-0.1,0.1-0.1,0.1c-0.1,0-0.2-0.1-0.2-0.1c-0.1-0.2,0-0.4,0.1-0.5
					c0.2-0.2,0.3-0.3,0.5-0.5c0.1-0.1,0.3-0.2,0.4-0.3c0,0,0-0.1,0.1-0.2c-0.1,0-0.1,0-0.2,0C173.2,86.2,172.9,86.4,172.5,86.7
					C172.5,86.6,172.5,86.7,172.5,86.7z"/>
				<path class="st17" d="M171.3,72.9c0.1,0.7,0.2,1.4,0.2,2.1c-1.1,0.4-2.1,0.4-3.2,0.1c0-0.7,0.1-1.4,0.1-2
					C169.4,73.3,170.4,73.1,171.3,72.9z"/>
				<path class="st18" d="M141.7,89.6c0,0,0.1,0,0.1,0c0.2,0.1,0.5,0.2,0.7,0.4c0.3,0.3,0.6,0.6,0.8,0.9c0.4,0.5,0.8,0.8,1.4,1
					c0.1,0,0.1,0,0.2,0.1c0.3,1,0.6,1.9,1,2.8c0,0,0,0,0,0.1c-0.2-0.1-0.5-0.1-0.7-0.2c-1.1-0.5-1.9-1.4-2.3-2.6
					c-0.2-0.6-0.4-1.2-0.7-1.7C142.1,90.1,141.9,89.8,141.7,89.6L141.7,89.6z"/>
				<path class="st18" d="M141.7,89.6C141.7,89.6,141.7,89.5,141.7,89.6C141.7,89.5,141.7,89.6,141.7,89.6L141.7,89.6z"/>
				<path class="st19" d="M163.4,87.5c-0.1,0.6-0.2,0.7-0.7,0.8c-0.1,0.2-0.2,0.3-0.3,0.4c-0.2,0.2-0.5,0.2-0.7,0
					c-0.2-0.2-0.3-0.4-0.5-0.5c-0.1-0.1-0.1-0.1-0.2,0c-0.7,0.6-1.5,1.2-2.2,1.9c-1,0.8-2,1.6-3.1,2.4c-0.6,0.4-1.2,0.6-1.8,0.7
					c-0.5,0-1,0-1.5-0.3c-0.5-0.2-0.8-0.6-1-1c-0.3-0.7-0.5-1.3-0.6-2c-0.2-1-0.4-2.1-0.5-3.1c-0.1-0.7-0.1-1.3-0.2-2
					c-0.1-0.9-0.1-1.9-0.2-2.8c0-0.6-0.1-1.2-0.1-1.8c0,0,0-0.1,0.1-0.1c0,0,0.1,0.1,0.1,0.1c0.1,1.3,0.2,2.7,0.4,4
					c0.1,1.3,0.3,2.6,0.5,3.8c0.2,1.1,0.3,2.3,0.7,3.4c0.1,0.4,0.3,0.7,0.6,1c0.4,0.3,0.8,0.4,1.3,0.4c0.6,0,1.2-0.1,1.8-0.5
					c0.9-0.5,1.7-1.2,2.5-1.8c0.9-0.7,1.8-1.5,2.6-2.2c0.1-0.1,0.2-0.2,0.4-0.3c0.2-0.2,0.5-0.2,0.7,0.1c0.2,0.2,0.3,0.3,0.5,0.5
					c0.1,0.1,0.2,0.1,0.3,0c0.1-0.2,0.1-0.4,0-0.6c-0.1-0.2-0.2-0.4-0.3-0.6c0,0,0-0.1,0-0.2c0,0,0.1,0,0.1,0.1
					c0.2,0.2,0.3,0.4,0.4,0.7c0.1,0.1,0.2,0.1,0.3,0.1c0,0,0.1-0.1,0.1-0.1c0.1-0.3,0.1-0.6-0.1-0.8c-0.1-0.1-0.2-0.2-0.3-0.3
					c0,0,0-0.1,0-0.1c0,0,0.1,0,0.1,0c0.2,0.2,0.4,0.4,0.5,0.6c0.1,0.1,0.1,0.1,0.2,0c0,0,0.1-0.1,0.1-0.1c0-0.3-0.1-0.7-0.4-0.9
					c-0.3-0.3-0.5-0.5-0.8-0.8c-0.2-0.2-0.5-0.2-0.7-0.1c-0.6,0.4-1.2,0.7-1.8,1.1c-1.6,1.1-3.2,2.1-4.9,3.2
					c-0.2,0.1-0.4,0.2-0.5,0.3c-0.4,0.1-0.7-0.1-0.8-0.5c-0.1-0.5-0.2-1-0.2-1.5c-0.1-0.7-0.2-1.5-0.3-2.2c-0.1-0.5-0.1-1.1-0.1-1.6
					c-0.1-1.1-0.1-2.1-0.2-3.2c0,0,0-0.1,0-0.1c0,0,0-0.1,0.1-0.1c0,0,0.1,0.1,0.1,0.1c0,0.1,0,0.2,0,0.4c0.1,1.3,0.3,2.5,0.4,3.8
					c0.2,1.3,0.3,2.7,0.5,4c0,0.1,0,0.2,0.1,0.3c0,0.2,0.2,0.3,0.3,0.2c0.1,0,0.2-0.1,0.3-0.2c1.7-1.1,3.4-2.2,5.1-3.3
					c0.5-0.3,1.1-0.6,1.6-1c0.5-0.3,1-0.2,1.4,0.1c0.4,0.3,0.8,0.6,1,1.1c0.1,0.2,0.2,0.5,0.2,0.7C163.9,87.2,163.8,87.4,163.4,87.5
					z"/>
				<path class="st20" d="M150.9,72.9c0,0.3,0,0.7-0.1,1c-0.1,0.7-0.7,1.4-1.7,1.3c-0.1,0-0.2,0-0.4-0.1c-0.4-0.1-0.7-0.3-0.8-0.7
					c-0.2-0.5-0.2-0.9-0.2-1.4c0-0.3,0-0.6,0-0.9c0-0.1,0.1-0.1,0.1-0.2c0,0.1,0.1,0.1,0.1,0.2c0,0.5,0.1,1,0.1,1.4
					c0,0.2,0.1,0.4,0.1,0.5c0.2,0.5,0.5,0.7,1,0.8c0.7,0,1.2-0.3,1.3-1c0.1-0.5,0.1-1,0.1-1.5c0-0.1,0-0.2,0-0.3
					c0,0,0.1-0.1,0.1-0.1c0,0,0.1,0.1,0.1,0.1c0,0,0,0.1,0,0.1C150.9,72.4,150.9,72.7,150.9,72.9C150.9,72.9,150.9,72.9,150.9,72.9z
					"/>
			</g>
		</g>
	</g>
	<path class="st10" d="M174.2,93c0-4.3-4.6-7.4-8.8-7.4c-4.1,0-8.8,3.2-8.8,7.4"/>
	<g>
		<path d="M77,25.3c0.5-0.1,1.4-0.2,2.2-0.2c1.2,0,2,0.2,2.6,0.7c0.5,0.4,0.8,0.9,0.8,1.7c0,0.9-0.6,1.7-1.6,2.1v0
			c0.9,0.2,1.9,1,1.9,2.4c0,0.8-0.3,1.4-0.8,1.9c-0.7,0.6-1.7,0.9-3.3,0.9c-0.8,0-1.5-0.1-1.9-0.1V25.3z M78.3,29.2h1.1
			c1.3,0,2-0.7,2-1.6c0-1.1-0.8-1.5-2.1-1.5c-0.6,0-0.9,0-1.1,0.1V29.2z M78.3,33.7c0.2,0,0.6,0.1,1,0.1c1.3,0,2.4-0.5,2.4-1.8
			c0-1.3-1.1-1.8-2.4-1.8h-1V33.7z"/>
		<path d="M85.8,25.2v5.6c0,2.1,0.9,3,2.2,3c1.4,0,2.3-0.9,2.3-3v-5.6h1.2v5.5c0,2.9-1.5,4.1-3.6,4.1c-1.9,0-3.4-1.1-3.4-4v-5.6
			H85.8z"/>
		<path d="M93.5,33.2c0.5,0.3,1.3,0.6,2.2,0.6c1.2,0,2-0.7,2-1.6c0-0.9-0.5-1.4-1.8-1.9c-1.5-0.5-2.5-1.3-2.5-2.7
			c0-1.5,1.2-2.6,3.1-2.6c1,0,1.7,0.2,2.1,0.5l-0.3,1c-0.3-0.2-0.9-0.4-1.8-0.4c-1.3,0-1.8,0.8-1.8,1.4c0,0.9,0.6,1.3,1.9,1.8
			c1.6,0.6,2.4,1.4,2.4,2.8c0,1.5-1.1,2.7-3.3,2.7c-0.9,0-1.9-0.3-2.4-0.6L93.5,33.2z"/>
		<path d="M102.1,31.7l-1,3h-1.3l3.2-9.4h1.5l3.2,9.4h-1.3l-1-3H102.1z M105.2,30.7l-0.9-2.7c-0.2-0.6-0.4-1.2-0.5-1.7h0
			c-0.1,0.6-0.3,1.1-0.5,1.7l-0.9,2.7H105.2z"/>
		<path d="M110.5,34.6l-3.1-9.4h1.3l1.5,4.7c0.4,1.3,0.8,2.4,1,3.5h0c0.3-1.1,0.7-2.3,1.1-3.5l1.6-4.7h1.3l-3.4,9.4H110.5z"/>
		<path d="M121.1,30.2h-3.7v3.4h4.1v1h-5.3v-9.4h5.1v1h-3.9v3h3.7V30.2z"/>
		<path d="M123.1,34.6v-9.4h1.3l3,4.8c0.7,1.1,1.2,2.1,1.7,3.1l0,0c-0.1-1.3-0.1-2.4-0.1-3.9v-4h1.1v9.4H129l-3-4.8
			c-0.7-1.1-1.3-2.1-1.8-3.2l0,0c0.1,1.2,0.1,2.3,0.1,3.9v4H123.1z"/>
		<path d="M134.1,26.2h-2.9v-1h7v1h-2.9v8.4h-1.2V26.2z"/>
		<path d="M140.5,25.2v5.6c0,2.1,0.9,3,2.2,3c1.4,0,2.3-0.9,2.3-3v-5.6h1.2v5.5c0,2.9-1.5,4.1-3.6,4.1c-1.9,0-3.4-1.1-3.4-4v-5.6
			H140.5z"/>
		<path d="M148.3,25.3c0.6-0.1,1.5-0.2,2.3-0.2c1.3,0,2.1,0.2,2.7,0.8c0.5,0.4,0.7,1.1,0.7,1.8c0,1.2-0.8,2.1-1.8,2.4v0
			c0.7,0.3,1.2,0.9,1.4,1.9c0.3,1.3,0.5,2.2,0.7,2.6h-1.3c-0.2-0.3-0.4-1.1-0.6-2.3c-0.3-1.3-0.8-1.8-1.9-1.8h-1.1v4.1h-1.2V25.3z
			 M149.6,29.6h1.2c1.3,0,2.1-0.7,2.1-1.8c0-1.2-0.9-1.8-2.2-1.8c-0.6,0-1,0.1-1.2,0.1V29.6z"/>
		<path d="M157.5,31.7l-1,3h-1.3l3.2-9.4h1.5l3.2,9.4h-1.3l-1-3H157.5z M160.6,30.7l-0.9-2.7c-0.2-0.6-0.4-1.2-0.5-1.7h0
			c-0.1,0.6-0.3,1.1-0.5,1.7l-0.9,2.7H160.6z"/>
	</g>
	<g>
		<g>
			<path class="st21" d="M106.8-23.4c0,0.2,0,0.4,0,0.6c0,0.7-0.2,1.1-1,1.1c-0.2,0-0.3,0.1-0.5,0.2c0,0.2,0,0.4,0,0.5
				c0,2.2-0.1,4.4-0.1,6.5c0,0.1,0,0.2,0,0.3c0,0.9-0.1,1.8-0.1,2.7c0,0.1,0,0.3,0,0.4c0,0.6-0.1,1.3-0.1,1.9c0,0.1,0,0.3,0,0.4
				c0,0.5-0.1,1-0.1,1.5c0,0.2,0,0.4,0,0.6c0,0.4-0.1,0.9-0.1,1.3c0,0.1,0,0.3,0,0.4c0,0.4-0.1,0.9-0.1,1.3c0,0.1,0,0.2,0,0.3
				c-0.1,1.5-0.3,3-0.4,4.5c0,0.1,0,0.2,0,0.3c0,0.4-0.1,0.8-0.1,1.2c0,0.1,0,0.3,0,0.4c0.1,0.4,0.3,0.7,0.4,1.1
				c0.1,0.3,0.3,0.6,0.5,1c0.2,0.6,0.4,1.3,0.6,1.9c0.4,1,0.8,2.1,1.1,3.1c0.4,1.6-0.2,2.7-1.5,3c-1.7,0.5-3.2-0.1-3.7-1.6
				c-0.5-1.5-0.8-3.1-1.2-4.6c-0.1-0.3-0.1-0.5-0.3-0.7c-0.4-0.7-0.3-1.4,0.2-2.1c0.2-0.3,0.4-0.6,0.4-1c0.4-8.1,0.7-16.2,1.1-24.3
				c0-0.3,0.1-0.6-0.4-0.7c-0.1,0-0.3-0.4-0.3-0.5c0.3-4.1-0.8-7.9-2-11.7c-0.9-2.8-1.5-5.8-2.2-8.7c-0.1-0.4-0.3-0.6-0.7-0.7
				c-2.7-0.6-5.4-1.3-7.8-2.7c-1.1-0.6-2.1-1.3-3-2.1c-2-1.8-2.5-4-1.7-6.5c0.5-1.7,1.5-3.3,2.7-4.7c1.1-1.3,2.4-2.6,3.5-3.9
				c0.2-0.2,0.4-0.6,0.4-0.9c0.1-1.2,0.2-2.4,0.4-3.6c0.7-3.9,2.3-5.4,6.2-6.1c-0.2-1.5-0.5-3-0.7-4.4c-0.3-2.7-0.6-5.3-0.8-8
				c-0.1-1.1,0.1-2.2,0.3-3.3c0.2-1.1,0.8-1.6,1.7-1.7c0.9-0.1,1.5,0.3,2.1,1.2c0.1,0.2,0.2,0.4,0.4,0.7c6-2.1,12.1-2.9,18.4-2.2
				c0.1-0.4,0.2-0.7,0.4-1.1c0.2-0.5,0.5-1,0.8-1.4c1-1,2.6-0.7,3,0.7c0.2,0.7,0.3,1.5,0.4,2.3c0.5,5.6,0.8,11.1,0.5,16.7
				c0,0.2,0.1,0.4,0.1,0.6c0.1,0,0.1,0,0.2,0c0.1-0.2,0.2-0.4,0.3-0.6c3.7-7.2,7.9-14.1,12.5-20.7c0.2-0.3,0.3-0.8,0.5-1.1
				c0.4-0.6,0.8-1.2,1.2-1.8c0.2-0.4,0.5-0.8,0.7-1.2c0.3-0.6,0.6-1.2,0.9-1.9c-0.6-0.7-0.5-0.9,0.3-2c0.3-0.3,0.3-0.3,1.3,0.2
				c0.8-1.3,1.5-2.6,2.3-3.8c0.2-0.3,0.5-0.5,0.7-0.8c0.1-0.3,0.1-0.7,0.3-1c2.9-4.9,5.8-9.8,8.7-14.6c0.2-0.3,0.5-0.5,0.8-0.8
				c0-0.4-0.2-1,0.5-0.8c0.2-0.6,0.4-1.2,0.7-1.7c0.3-0.6,0.6-1.1,1-1.7c2.2-3.7,2.2-3.7,5.7-6c0.1-0.1,0.2-0.1,0.4-0.2
				c0.2,0.4,0,3.8-0.4,5c-0.3,1.1-2.2,3.8-2.7,4c-0.2,0.5-0.2,1-0.5,1.4c-2.9,4.9-5.8,9.8-8.7,14.6c-0.3,0.4-0.7,0.8-1.2,1.3
				c0.3,0.5-0.2,1-0.5,1.6c-1.1,1.8-2.2,3.6-3.2,5.4c-0.1,0.2-0.2,0.4-0.3,0.6c1,0.8,1,0.9,0.1,2.1c-0.3,0.4-0.3,0.4-1.6-0.4
				c-0.3,0.3-0.7,0.3-0.7,1c0,0.4-0.8,0.8-1.1,1.2c-0.4,0.4-0.7,0.9-1,1.4c-0.3,0.4-0.5,0.8-0.8,1.1c-0.4,0.4-0.9,0.8-1.2,1.2
				c-4.7,7-8.9,14.2-12.8,21.7c-0.2,0.3-0.3,0.7-0.3,1.1c-0.1,1.8-1,3.2-2.6,4c-0.4,0.2-0.6,0.4-0.6,0.9c-0.8,12.4,0.5,24.5,5,36.2
				c0.2,0.5,0.1,0.8-0.3,1.1c-0.4,0.2-0.4,0.6-0.3,1c2.4,9.7,3.7,19.5,3.9,29.5c0,0.3,0.3,0.5,0.4,0.7c0.3,0.5,0.5,0.9,0.8,1.4
				c0.1,0.2,0.2,0.5,0.5,0.7c0.9,0.6,1.8,1.1,2.6,1.6c0.4,0.2,0.7,0.6,0.9,1c0.8,1.2,0.3,2.3-1.1,2.6c-2.1,0.4-4.2,0.1-6.3-0.5
				c-1.3-0.4-1.8-1.6-1.5-3.2c0.1-0.6,0.2-1.1-0.1-1.7c-0.2-0.4,0.3-1,0.4-1.5c0.1-0.3,0.3-0.5,0.3-0.8c-0.8-9.5-2-18.9-4.5-28.1
				c-0.1-0.2-0.1-0.5-0.2-0.8c-0.6,0.2-0.9-0.1-1.1-0.6c-1.3-2.5-2.2-5.1-2.7-7.9c-0.6,0.1-1.1,0.1-1.6,0.2
				c-3.3,0.6-6.5,1.5-9.6,2.7c-0.7,0.3-1,0.6-0.8,1.3c0.1,0.2,0,0.4,0,0.6c0,0.1,0,0.2,0,0.3c0,0.5,0.1,0.9,0.1,1.4
				c0,0.2,0,0.5,0,0.7c0,0.9,0,1.9,0,2.8C106.8-23.9,106.8-23.6,106.8-23.4z M101.8-43.5c-0.1,0-0.2-0.1-0.2-0.1c0,0,0,0.1,0,0.1
				C101.6-43.6,101.7-43.6,101.8-43.5c0.1,0,0.2,0.1,0.2,0.1c0,0,0-0.1,0-0.1C102-43.5,101.9-43.5,101.8-43.5z M139.1-96.2
				c0.4,0.1,0.9,0.2,1.3,0.2c0-0.1,0-0.2,0.1-0.2c-0.8-0.4-1.5-0.9-2.3-1.3c0,0.1-0.1,0.1-0.1,0.2c0.3,0.3,0.5,0.7,0.8,1
				c-0.2,0-0.4,0-0.6,0c-0.6,0-0.9,0.5-0.9,1c0.1,0.6,0.6,1,1.1,0.9c0.5-0.1,0.9-0.6,0.7-1.2C139.2-95.7,139.2-95.9,139.1-96.2z
				 M122.4-69.8c0,0,0,0.1,0,0.1c-0.1,1.1-0.2,2.2-0.4,3.4c1.5-0.6,2.3-2,2.2-3.7c0.1-1.7-0.2-2.6-1.4-3c-0.1,1-0.2,2-0.4,3
				C122.5-69.9,122.4-69.8,122.4-69.8z M98.4-68.6c-0.4-0.5-0.9-0.6-1.4-0.2c-2,1.6-4,3.2-6,4.8c-0.2,0.2-0.4,0.4,0,0.6
				c0.1,0.2,0.1,0.5,0.2,0.7c-0.2-0.1-0.5-0.3-0.7-0.4c-0.2,0-0.4,0-0.4,0.1c-2.1,2-4.1,4.1-5.5,6.6c-0.7,1.3-1.1,2.6-1.1,4
				c0,2.2,1.3,3.7,3,4.9c1.8,1.2,3.8,2.1,5.8,2.6c2.1,0.6,4.3,1,6.5,1.5c0.7,0.2,1.3,0.3,2.1,0.5c-0.3-0.5-0.2-0.8,0.2-0.8
				c0.1-0.5,0.2-0.9,0.3-1.2c-1.5-0.3-3-0.5-4.6-0.8c-2.7-0.6-5.4-1.3-7.8-2.8c-2.7-1.8-3.4-4.4-1.8-7.2c0.9-1.5,2.1-2.9,3.3-4.3
				c0.5-0.6,1.4-1.1,1.2-2.1c0.2,0.2,0.4,0.3,0.5,0.4c2.1-1.6,4.2-3.1,6.2-4.6C99.1-67,99.1-67.7,98.4-68.6z M96-62.6
				c0.4,0,0.8,0,1.2,0c2.9-0.2,4.4-2.5,3.6-5.2c-0.1-1.9-1.4-3.1-3.3-3.1c-0.6,0-1.1,0.1-1.7,0.1c-0.1,0-0.3-0.1-0.4-0.2
				c0.1-0.1,0.2-0.3,0.3-0.3c0.3-0.1,0.7-0.2,1.1-0.2c-0.1-0.5-0.2-1-0.3-1.6c-0.4,0-0.7,0.1-1,0.1c-2.6,0.4-4.7,2.8-4.8,6.6
				c-0.1,0.7-0.2,1.4-0.3,2.2c0.1,0,0.2,0,0.2,0.1c0.7-0.6,1.4-1.2,2.1-1.9c1.3-1,2.6-2.1,4-3c0.4-0.3,1.1-0.3,1.6-0.3
				c0.9,0.1,1.1,0.9,1.3,1.6c0.1,0.9-0.4,1.5-1.1,2c-0.5,0.4-1,0.8-1.6,1.2c-0.1,0-0.2,0-0.3,0.1c-1.8,1.5-3.7,3-5.5,4.6
				c-0.2,0.2-0.3,0.7-0.3,1c0.5,2.2,1.6,4.2,3.3,5.7c0.2,0.2,0.6,0.3,0.9,0.5c0.1-0.2,0.1-0.2,0.1-0.3c0.1-2.8,0.2-5.7,0.3-8.5
				c0-0.2-0.3-0.4-0.4-0.5c-0.1-0.1-0.2-0.2-0.3-0.4c0.1-0.1,0.3-0.2,0.4-0.2C95.5-62.6,95.7-62.6,96-62.6z M127.3-78.5
				c1.3,0.6,1.2,0.5,2-0.7c2.8-4.6,5.6-9.1,8.4-13.6c0.1-0.2,0.3-0.4,0.4-0.6c-0.3-0.2-0.6-0.3-0.9-0.5c-0.2-0.2-0.4-0.4-0.7-0.7
				c-0.1,0.2-0.3,0.4-0.4,0.5c-3.2,4.5-6.1,9.2-8.8,14C127.1-79.5,126.9-79.1,127.3-78.5c-0.2,0-0.4-0.1-0.7-0.1
				c-1,1.8-1.9,3.6-2.8,5.3c0.5,0.7,0.9,1.2,1.3,1.9c1.1-2.1,2.2-4.1,3.2-6C127.9-77.9,127.6-78.2,127.3-78.5z M160.7-132.3
				c-1.2,0.8-2.4,1.5-3.1,2.9c-0.7,1.3-1.5,2.5-2.2,3.8c-0.2,0.3-0.2,0.7-0.2,1c0,0.5,0,0.8-0.5,0.9c-0.1,0.3-0.2,0.5-0.4,0.7
				c-0.2,0.2-0.7,0.3-0.8,0.6c-2.9,4.8-5.7,9.5-8.5,14.3c-0.1,0.1-0.3,0.3-0.2,0.5c0.1,0.7,0.2,1.3-0.7,1.2c0,0-0.1,0.1-0.1,0.1
				c-0.8,1.3-1.6,2.7-2.4,4c0.4,0.3,0.7,0.5,1.1,0.7c0.2-0.3,0.3-0.5,0.5-0.7c5-8.3,9.9-16.6,14.9-25
				C158.9-128.9,159.8-130.6,160.7-132.3c0.1,0,0.1,0,0.2,0C160.8-132.4,160.7-132.4,160.7-132.3z M128.1,4.6c1,0.4,1.5,0.1,1.5-1
				c-0.1-10.1-1.4-20-3.8-29.7c-0.1-0.2-0.1-0.5-0.2-0.8c-0.7,0.3-1.3,0.6-2,0.9c-0.2,0.1-0.5,0.2-0.7,0.2c0,0.2,0.1,0.3,0.1,0.4
				c1.5,5.6,2.6,11.2,3.3,17c0.5,4.1,0.9,8.2,1.3,12.3C127.7,4.2,128,4.4,128.1,4.6z M101,2.8c0,0.2,0,0.4-0.1,0.6
				c0,0.1-0.1,0.3,0,0.4c0.1,0.4,0,0.9,0.3,1.1c0.3,0.2,0.8,0.3,1.2,0.2c0.4-0.1,0.7-0.4,0.7-1c0.9-8.5,1.4-16.9,1.7-25.4
				c0-0.1,0-0.2-0.1-0.4c-0.7,0-1.3,0.1-1.9,0.1c-0.3,0-0.5-0.1-0.9-0.1c0,0.4,0,0.6,0,0.9c-0.1,3.5-0.1,6.9-0.2,10.4
				c0,1.6-0.1,3.1-0.1,4.7c0,0.1,0,0.2,0,0.3c0,0.5-0.1,0.9-0.1,1.4c0,0.3,0,0.7-0.1,1c0,0.2,0,0.3,0,0.5c0,0.5-0.1,1-0.1,1.5
				c0,0.2,0,0.3,0,0.5c0,0.4-0.1,0.9-0.1,1.3c0,0.2,0,0.4-0.1,0.6C101.1,1.9,101.1,2.4,101,2.8z M120.3-93.9c-1,0.1-1.7,0.8-1.9,2.4
				c0.2,0,0.4,0.1,0.6,0.1c0.3,0.9-0.4,0.5-0.7,0.5c-4.3-0.4-8.5-0.2-12.7,0.7c-2,0.4-4,0.8-6,1.3c0.1,0.4,0.2,0.7,0.3,0.9
				c-0.1,0.2-0.2,0.3-0.3,0.5c-0.1-0.1-0.3-0.3-0.3-0.4c-0.3-0.6-0.4-1.3-0.7-1.9c-0.2-0.5-0.6-0.9-1.2-0.8c-0.9-0.1-1.3,0.2-1.4,1
				c-0.2,1.1-0.3,2.2-0.2,3.3c0.3,3.5,0.7,7,1.2,10.4c0.2,1.4,0.4,2.9,0.7,4.3c0.4,0,0.6,0,0.9,0c1,0.3,1.9,0.7,2.5,1.6
				c0.1,0.1,0.5,0.2,0.7,0.1c6.5-2.4,13.2-3.3,20.1-2.8c0.2,0,0.4,0,0.6,0c0-0.3,0-0.6,0.1-0.9c0.4-6-0.2-11.9-0.5-17.9
				c0-0.5-0.1-1-0.3-1.5C121.3-93.5,121-93.9,120.3-93.9z M123.3-26.5c0.9-0.4,1.7-0.8,2.6-1.2c0.6-0.3,0.6-0.7,0.4-1.3
				c-1.9-4.5-3.2-9.2-3.8-14.1c-0.1-0.5-0.3-0.7-0.7-0.6c-2.6,0.3-5.3,0.4-7.9,0.8c-4.6,0.7-9,2-13.2,3.8c-0.6,0.3-1.3,0.5-1.9,0.8
				c-0.4,0.2-0.5,0.4-0.4,0.8c0.4,1.2,0.7,2.4,1.1,3.6c1.3,3.6,2.4,7.2,2,11.1c0,0.2,0.2,0.5,0.3,0.5c0.5,0.1,1.1,0.1,1.6,0.1
				c0.8-0.1,1.6-0.1,2.4-0.2c0.2,0,0.5-0.3,0.5-0.5c0.1-1.5,0.2-3,0.2-4.6c0-1.1-0.3-2.1-0.5-3.1c-0.1-0.4,0-0.7,0.4-0.9
				c4.4-1.8,9-2.9,13.7-3.5c0.2,0,0.4,0.1,0.6,0.2c-0.2,0.1-0.4,0.3-0.5,0.4c-0.3,0-0.7,0.1-1,0.1c0,0.2,0,0.3,0,0.4
				c0.3,2.4,1,4.6,2.2,6.7C122-26,122-25.9,123.3-26.5z M101.3-64.6c-0.6,0.6-1.1,1.4-1.8,1.8c-0.7,0.4-1.7,0.6-2.5,0.8
				c-0.6,0.1-0.9,0.3-0.9,1c0,0.9-0.1,1.9-0.2,2.8c-0.3,3.8-0.1,7.6,0.4,11.3c0,0.2,0.3,0.5,0.5,0.5c0.9,0.2,1.7,0.3,2.6,0.5
				c0.4,0.1,0.8,0.1,1.2,0.2c0.9,0.1,1.8,0.3,2.6,0.4c0.4,0.1,0.8,0.3,0.6,0.8c-0.1,0.5-0.3,1-0.5,1.5c-0.2,0.4-0.6,0.7-0.9,1.1
				c-1.7-0.7-3.6-0.9-5.5-1.2c0.3,1.5,0.6,2.9,1,4.5c0.9-0.4,1.8-0.8,2.6-1.2c0.2-0.1,0.3-0.1,0.5-0.2c6.6-2.7,13.4-4.2,20.6-4.3
				c0.2,0,0.4,0,0.7-0.1c-1.5-9.2-1.3-18.4-0.1-27.7c-7.3-0.7-14.2,0.2-21,3C101.6-67.6,101.6-66.1,101.3-64.6z M90.2-58.9
				c-1.2,1.3-2.3,2.7-2.9,4.4c-0.7,1.9-0.3,3.5,1.2,4.8c2.1,1.8,4.6,2.5,7.2,3.2c-0.2-1.9-0.3-3.7-0.4-5.2
				C92.3-53.3,91.1-56,90.2-58.9z M144.1-100.5c1.3-2.1,2.5-4.2,3.7-6.3c0.2-0.3,0.2-0.8,0.2-1.2c0-0.3-0.1-0.7,0.4-0.7
				c0.6,0,0.8-0.4,1-0.8c2.5-4.2,4.9-8.3,7.4-12.5c0.5-0.8,1.2-1.6,1.4-2.4c0.1-0.8,0.1-1.4,1-1.6c1.2-1.9,2.5-3.8,2.2-6.3
				c-6.2,10.3-12.3,20.6-18.5,30.9C143.4-101,143.7-100.8,144.1-100.5z M100.2,4.9c-0.3,0.8,0,1.3,0.7,1.4c0.8,0.1,1.7,0.2,2.5,0
				c1-0.2,1.1-1,0.5-1.8C103,6.2,101.6,6.3,100.2,4.9z M130.3,4.1c-0.2,0.9-0.8,1.3-1.5,1.2c-0.6,0-1.2-0.4-1.9-0.6
				c-0.3,0.6-0.1,1.1,0.7,1.1c0.8,0.1,1.7,0,2.5-0.2C131,5.5,131.1,4.9,130.3,4.1z M141.2-96.8c-0.6-1.2-1.2-1.4-2.4-1
				C139.5-97.1,140.2-96.7,141.2-96.8z M140.1-100.3c-0.8,0.3-1.3,1-1.1,1.9C139.9-98.6,140.4-99.4,140.1-100.3z M141-100.1
				c-0.1,0-0.2,0.1-0.2,0.1c0,0.3,0,0.7,0.1,0.7c0.5,0.3,1,0.8,1.9,0.4C142.1-99.3,141.5-99.7,141-100.1z M141.8-97.4
				c0-0.1,0.1-0.2,0.1-0.3c-0.5-0.9-1.3-1.3-1.7-0.8C140.8-98.1,141.3-97.7,141.8-97.4z M102.5-43.3
				C102.4-43.3,102.4-43.4,102.5-43.3c-0.1-0.1-0.2,0-0.2,0c0,0,0,0.1,0.1,0.1C102.4-43.3,102.4-43.3,102.5-43.3z"/>
			<path class="st22" d="M106.8-26.9c0-0.2,0-0.5,0-0.7C106.8-27.4,106.8-27.2,106.8-26.9z"/>
			<path class="st22" d="M106.8-23.4c0-0.2,0-0.5,0-0.7C106.8-23.9,106.8-23.6,106.8-23.4z"/>
			<path class="st22" d="M104.7-6.7c0-0.2,0-0.4,0-0.6C104.7-7,104.7-6.9,104.7-6.7z"/>
			<path class="st22" d="M105.3-21c0-0.2,0-0.4,0-0.5C105.3-21.4,105.3-21.2,105.3-21z"/>
			<path class="st22" d="M103.8,3.1c0-0.1,0-0.3,0-0.4C103.8,2.8,103.8,3,103.8,3.1z"/>
			<path class="st22" d="M105-11.1c0-0.1,0-0.3,0-0.4C105-11.4,105-11.2,105-11.1z"/>
			<path class="st22" d="M104.9-8.7c0-0.1,0-0.3,0-0.4C104.9-9,104.9-8.9,104.9-8.7z"/>
			<path class="st22" d="M104.6-4.9c0-0.1,0-0.3,0-0.4C104.6-5.2,104.6-5,104.6-4.9z"/>
			<path class="st22" d="M105.2-14.2c0-0.1,0-0.2,0-0.3C105.2-14.4,105.2-14.3,105.2-14.2z"/>
			<path class="st22" d="M106.7-29c0-0.1,0-0.2,0-0.3C106.7-29.2,106.7-29.1,106.7-29z"/>
			<path class="st22" d="M104,1.5c0-0.1,0-0.2,0-0.3C104,1.3,104,1.4,104,1.5z"/>
			<path class="st22" d="M104.4-3.2c0-0.1,0-0.2,0-0.3C104.4-3.4,104.4-3.3,104.4-3.2z"/>
			<path class="st23" d="M102.4-41.9c0.3-0.4,0.7-0.7,0.9-1.1c0.3-0.5,0.4-1,0.5-1.5c0.2-0.5-0.2-0.7-0.6-0.8
				c-0.9-0.2-1.7-0.3-2.6-0.4c-0.4-0.1-0.8-0.1-1.2-0.2c-0.1-0.4-0.2-0.8-0.3-1.1c-0.3-1.8-0.5-3.7-0.8-5.5
				c-0.4-2.1-0.3-4.2-0.1-6.3c0.1-0.9,0.4-1.6,1.2-2.2c0.5-0.4,1-0.8,1.3-1.3c0.5-0.6,1-1.3,0.5-2.2c0.3-1.5,0.3-3-0.2-4.6
				c6.7-2.7,13.6-3.7,21-3c-1.2,9.2-1.4,18.5,0.1,27.7c-0.3,0-0.5,0.1-0.7,0.1c-7.1,0.1-14,1.7-20.6,4.3c-0.2,0.1-0.3,0.1-0.5,0.2
				c0-0.5,0.3-0.8,0.8-1.1C101.7-41.1,102-41.5,102.4-41.9z"/>
			<path class="st24" d="M120.2-34.3c0.2-0.1,0.4-0.3,0.5-0.4c-0.2-0.1-0.4-0.2-0.6-0.2c-4.7,0.5-9.3,1.6-13.7,3.5
				c-0.5,0.2-0.5,0.5-0.4,0.9c0.2,1,0.4,2.1,0.5,3.1c0,1.5-0.1,3-0.2,4.6c0,0.2-0.3,0.5-0.5,0.5c-0.8,0.1-1.6,0.2-2.4,0.2
				c0-0.9,0-1.8,0-2.7c0-2,0.1-3.9-0.2-5.9c-0.2-1.5-1-2.9-1.5-4.3c-0.4-1.3-0.8-2.7-1.2-4.1c4.3-1.8,8.7-3.1,13.2-3.8
				c2.6-0.4,5.3-0.5,7.9-0.8c0.5-0.1,0.7,0.1,0.7,0.6c0.7,4.9,1.9,9.6,3.8,14.1c0.2,0.6,0.2,1-0.4,1.3c-0.9,0.4-1.7,0.8-2.6,1.2
				c-0.2-0.2-0.3-0.5-0.5-0.7c-1.2-1.8-1.7-3.8-2.3-5.8C120.3-33.4,120.3-33.9,120.2-34.3z"/>
			<path class="st25" d="M97.2-90.7c0.6-0.1,1,0.3,1.2,0.8c0.3,0.6,0.5,1.3,0.7,1.9c0.1,0.2,0.2,0.3,0.3,0.4
				c0.1-0.2,0.2-0.3,0.3-0.5c1.5-0.5,3-1,4.4-1.5c0.5-0.2,0.9-0.4,1.3-0.7c4.2-0.9,8.5-1.1,12.7-0.7c0.3,0,1,0.4,0.7-0.5
				c0.1-1.1,0.8-1.7,1.4-2.5c0.6-0.1,1,0.4,1.1,0.9c0.2,0.5,0.3,1,0.3,1.5c0.3,6,0.9,11.9,0.5,17.9c0,0.3,0,0.5-0.1,0.9
				c-0.2,0-0.4,0-0.6,0c-6.9-0.5-13.6,0.5-20.1,2.8c-0.2,0.1-0.6,0-0.7-0.1c-0.6-0.9-1.5-1.3-2.5-1.6c-0.2-1.7-0.4-3.4-0.6-5.1
				c-0.2-2-0.5-3.9-0.7-5.9c-0.1-1.5-0.2-3-0.2-4.5C96.8-88.3,97-89.5,97.2-90.7z M109.9-73.2c1.1-0.2,2.3-0.2,3.4-0.5
				c2.9-0.6,5.5-1.9,7.3-4.2c2.1-2.7,1.6-6.1-1.2-8.1c-0.3-0.2-0.7-0.5-1.1-0.7c-2.9-1.6-6-1.7-9.2-1.1c-2.8,0.5-5.4,1.7-7.3,4
				c-2.6,3-2,6.7,1.3,8.8C105.3-73.8,107.5-73.3,109.9-73.2z"/>
			<path class="st26" d="M101.5-2.9c0-0.3,0-0.7,0.1-1c0-0.5,0.1-0.9,0.1-1.4c0-0.1,0-0.2,0-0.3c0.1-0.2,0.2-0.4,0.2-0.5
				c0.1-1.5,0.2-3.1,0.3-4.6c0.2-3.6,0.4-7.1,0.6-10.7c0.6,0,1.3-0.1,1.9-0.1c0,0.1,0.1,0.3,0.1,0.4c-0.3,8.5-0.8,17-1.7,25.4
				c-0.1,0.5-0.3,0.9-0.7,1c-0.4,0.1-0.9,0-1.2-0.2c-0.2-0.2-0.2-0.7-0.3-1.1c0-0.1,0-0.3,0-0.4c0-0.2,0-0.4,0.1-0.6
				c0-0.5,0.1-1,0.1-1.5c0-0.2,0-0.4,0.1-0.6c0-0.4,0.1-0.9,0.1-1.3c0-0.2,0-0.3,0-0.5c0-0.5,0.1-1,0.1-1.5
				C101.5-2.6,101.5-2.8,101.5-2.9z"/>
			<path class="st27" d="M90.5-63.1c0.2,0.1,0.5,0.3,0.7,0.4l0,0c0.1,0.1,0.2,0.2,0.3,0.3c0,0.1,0.1,0.1,0.1,0.2
				c0.2,1.1-0.7,1.5-1.2,2.1c-1.1,1.4-2.4,2.7-3.3,4.3c-1.6,2.8-0.9,5.4,1.8,7.2c2.4,1.6,5.1,2.3,7.8,2.8c1.5,0.3,3,0.5,4.6,0.8
				c-0.1,0.4-0.2,0.8-0.3,1.2c-0.4,0-0.4,0.3-0.2,0.8c-0.8-0.2-1.5-0.4-2.1-0.5c-0.2-0.1-0.5-0.3-0.7-0.4c-1.6-0.5-3.2-0.9-4.8-1.3
				c-2.3-0.6-4.6-1.4-6.5-2.8c-1.1-0.8-2.1-1.8-2.3-3.2c-0.2-2.5,0.4-4.8,2-6.9C87.8-59.7,89.2-61.4,90.5-63.1z"/>
			<path class="st27" d="M123.7-25.9c0.6-0.3,1.3-0.6,2-0.9c0.1,0.3,0.2,0.5,0.2,0.8c2.4,9.8,3.7,19.7,3.8,29.7c0,1-0.5,1.4-1.5,1
				c-0.1-2.4-0.2-4.7-0.3-7.1c-0.1-1.6-0.3-3.1-0.5-4.7c-0.3-2.3-0.6-4.7-1-7c-0.5-2.7-1-5.4-1.6-8.1
				C124.5-23.5,124.1-24.7,123.7-25.9z"/>
			<path class="st28" d="M144.1-100.5c-0.4-0.3-0.7-0.5-1.1-0.8c6.2-10.3,12.3-20.6,18.5-30.9c0.3,2.5-1,4.4-2.2,6.3
				c-0.9,0.2-0.9,0.8-1,1.6c-0.1,0.9-0.9,1.6-1.4,2.4c-2.5,4.2-5,8.3-7.4,12.5c-0.2,0.4-0.5,0.8-1,0.8c-0.5,0-0.4,0.3-0.4,0.7
				c0,0.4,0,0.8-0.2,1.2C146.6-104.7,145.4-102.7,144.1-100.5z"/>
			<path class="st29" d="M160.8-132.3c-1,1.7-1.9,3.3-2.9,5c-5,8.3-9.9,16.7-14.9,25c-0.1,0.2-0.3,0.5-0.5,0.7
				c-0.4-0.2-0.7-0.4-1.1-0.7c0.8-1.4,1.6-2.7,2.4-4c0,0,0.1-0.1,0.1-0.1c1,0,0.9-0.6,0.7-1.2c0-0.1,0.1-0.3,0.2-0.5
				c2.8-4.8,5.7-9.5,8.5-14.3c0.2-0.3,0.6-0.4,0.8-0.6c0.2-0.2,0.4-0.4,0.4-0.7c0.5-0.1,0.5-0.4,0.5-0.9c0-0.3,0.1-0.7,0.2-1
				c0.7-1.3,1.6-2.5,2.2-3.8C158.3-130.8,159.5-131.6,160.8-132.3C160.7-132.3,160.7-132.3,160.8-132.3z"/>
			<path class="st30" d="M101.3-64.6c0.5,0.9,0,1.6-0.5,2.2c-0.4,0.5-0.9,0.9-1.3,1.3c-0.8,0.6-1.1,1.3-1.2,2.2
				c-0.3,2.1-0.3,4.2,0.1,6.3c0.3,1.8,0.5,3.7,0.8,5.5c0.1,0.4,0.2,0.8,0.3,1.1c-0.9-0.1-1.7-0.3-2.6-0.5c-0.2,0-0.4-0.3-0.5-0.5
				c-0.4-3.8-0.6-7.5-0.4-11.3c0.1-0.9,0.2-1.9,0.2-2.8c0-0.7,0.3-0.9,0.9-1c0.9-0.2,1.8-0.3,2.5-0.8
				C100.2-63.2,100.7-64,101.3-64.6z"/>
			<path class="st31" d="M100.5-39.1c0.4,1.4,0.7,2.7,1.2,4.1c0.5,1.4,1.3,2.8,1.5,4.3c0.3,1.9,0.1,3.9,0.2,5.9c0,0.9,0,1.8,0,2.7
				c-0.5,0-1.1,0-1.6-0.1c-0.1,0-0.3-0.4-0.3-0.5c0.3-3.9-0.7-7.5-2-11.1c-0.4-1.2-0.7-2.4-1.1-3.6c-0.1-0.4,0-0.6,0.4-0.8
				C99.2-38.5,99.8-38.8,100.5-39.1z"/>
			<path class="st32" d="M127.3-78.5c-0.3-0.5-0.2-1,0.1-1.6c2.7-4.8,5.6-9.5,8.8-14c0.1-0.2,0.3-0.3,0.4-0.5
				c0.3,0.3,0.4,0.5,0.7,0.7c0.2,0.2,0.5,0.3,0.9,0.5c-0.1,0.2-0.3,0.4-0.4,0.6c-2.8,4.5-5.6,9.1-8.4,13.6
				C128.5-78,128.6-78,127.3-78.5L127.3-78.5z"/>
			<path class="st33" d="M90.7-66.5c0.1-3.8,2.2-6.2,4.8-6.6c0.3,0,0.6-0.1,1-0.1c0.1,0.5,0.2,1,0.3,1.6c-0.4,0.1-0.8,0.1-1.1,0.2
				c-0.1,0-0.2,0.2-0.3,0.3c0.1,0.1,0.3,0.2,0.4,0.2c0.6,0,1.1-0.1,1.7-0.1c1.9,0,3.1,1.2,3.3,3.1c-0.4,0-0.8,0-1.2,0.1
				c-0.3-0.7-0.4-1.6-1.3-1.6c-0.5,0-1.2,0-1.6,0.3c-1.4,0.9-2.6,2-4,3C92-66.3,91.3-66.4,90.7-66.5z"/>
			<path class="st34" d="M96-62.6c-0.2,0-0.5,0.1-0.7,0.1c-0.1,0-0.3,0.1-0.4,0.2c0.1,0.1,0.2,0.2,0.3,0.4c0.1,0.2,0.4,0.4,0.4,0.5
				c-0.1,2.8-0.2,5.7-0.3,8.5c0,0,0,0.1-0.1,0.3c-0.3-0.1-0.7-0.2-0.9-0.5c-1.7-1.5-2.8-3.5-3.3-5.7c-0.1-0.3,0-0.9,0.3-1
				c1.8-1.6,3.6-3.1,5.5-4.6c0.1-0.1,0.2-0.1,0.3-0.1c-0.1,0.2-0.2,0.5-0.3,0.7C96.4-63.4,96.2-63,96-62.6z"/>
			<path class="st35" d="M123.7-25.9c0.4,1.2,0.8,2.5,1.1,3.7c0.6,2.7,1.1,5.4,1.6,8.1c0.4,2.3,0.7,4.7,1,7c0.2,1.6,0.4,3.1,0.5,4.7
				c0.1,2.4,0.2,4.7,0.3,7.1c-0.1-0.2-0.4-0.5-0.4-0.7c-0.5-4.1-0.8-8.2-1.3-12.3c-0.7-5.7-1.8-11.4-3.3-17c0-0.1,0-0.2-0.1-0.4
				C123.2-25.8,123.5-25.9,123.7-25.9z"/>
			<path class="st36" d="M97.2-90.7c-0.2,1.2-0.4,2.3-0.4,3.5c0,1.5,0.1,3,0.2,4.5c0.2,2,0.4,3.9,0.7,5.9c0.2,1.7,0.4,3.4,0.6,5.1
				c-0.3,0-0.5,0-0.9,0c-0.2-1.5-0.5-2.9-0.7-4.3c-0.4-3.5-0.8-6.9-1.2-10.4c-0.1-1.1,0-2.2,0.2-3.3C95.9-90.5,96.3-90.7,97.2-90.7z
				"/>
			<path class="st37" d="M91.6-62.2c0-0.1-0.1-0.1-0.1-0.2c-0.1-0.1-0.2-0.2-0.3-0.3l0,0c-0.1-0.2-0.1-0.5-0.2-0.7
				c0.2-0.2,0.4-0.5,0.6-0.7c1.7-1.3,3.3-2.6,5-3.8c0.5-0.4,1.1-0.5,1.7-0.7c0.7,0.9,0.7,1.6-0.1,2.2c-2,1.5-4.1,3-6.2,4.6
				C92-61.9,91.8-62,91.6-62.2z"/>
			<path class="st38" d="M90.5-63.1c-1.4,1.7-2.8,3.3-4.1,5c-1.6,2-2.2,4.3-2,6.9c0.1,1.5,1.2,2.4,2.3,3.2c2,1.4,4.2,2.2,6.5,2.8
				c1.6,0.4,3.2,0.9,4.8,1.3c0.3,0.1,0.5,0.3,0.7,0.4c-2.2-0.5-4.3-0.9-6.5-1.5c-2.1-0.6-4.1-1.4-5.8-2.6c-1.7-1.2-3-2.6-3-4.9
				c0-1.4,0.4-2.8,1.1-4C86-59,88-61.1,90.1-63C90.2-63.1,90.4-63.1,90.5-63.1z"/>
			<path class="st39" d="M102.4-41.9c-0.4,0.3-0.7,0.8-1.1,1c-0.5,0.2-0.8,0.5-0.8,1.1c-0.8,0.4-1.6,0.8-2.6,1.2
				c-0.3-1.5-0.7-2.9-1-4.5C98.8-42.8,100.7-42.6,102.4-41.9z"/>
			<path class="st40" d="M127.3-78.5c0.3,0.3,0.6,0.6,1,1c-1,1.9-2.1,4-3.2,6c-0.4-0.6-0.8-1.2-1.3-1.9c0.9-1.7,1.9-3.5,2.8-5.3
				C126.9-78.6,127.1-78.5,127.3-78.5L127.3-78.5z"/>
			<path class="st41" d="M96-62.6c0.2-0.4,0.4-0.8,0.6-1.3c0.1-0.2,0.2-0.5,0.3-0.7c0.5-0.4,1-0.8,1.6-1.2c0.7-0.5,1.1-1.1,1.1-2
				c0.4,0,0.8,0,1.2-0.1c0.8,2.8-0.7,5-3.6,5.2C96.8-62.6,96.4-62.6,96-62.6z"/>
			<path class="st31" d="M120.2-34.3c0.1,0.4,0.1,0.9,0.3,1.3c0.6,2,1.1,4,2.3,5.8c0.2,0.2,0.3,0.5,0.5,0.7
				c-1.3,0.5-1.3,0.5-1.9-0.6c-1.2-2.1-1.9-4.3-2.2-6.7c0-0.1,0-0.2,0-0.4C119.5-34.2,119.8-34.2,120.2-34.3z"/>
			<path class="st42" d="M102.8-21.5c-0.2,3.6-0.4,7.1-0.6,10.7c-0.1,1.5-0.2,3.1-0.3,4.6c0,0.2-0.2,0.4-0.2,0.5
				c0-1.6,0.1-3.1,0.1-4.7c0.1-3.5,0.1-6.9,0.2-10.4c0-0.3,0-0.5,0-0.9C102.3-21.5,102.6-21.5,102.8-21.5z"/>
			<path class="st34" d="M124.3-69.9c0,1.7-0.7,3.1-2.2,3.7c0.1-1.2,0.2-2.3,0.4-3.4C123.1-69.2,123.7-69.8,124.3-69.9z"/>
			<path class="st43" d="M124.3-69.9c-0.6,0.2-1.1,0.8-1.9,0.3c0,0,0-0.1,0-0.1c0-0.1,0-0.1,0-0.2c0.1-1,0.2-2,0.4-3
				C124-72.5,124.4-71.7,124.3-69.9z"/>
			<path class="st39" d="M98.4-68.6c-0.6,0.2-1.2,0.4-1.7,0.7c-1.7,1.2-3.3,2.5-5,3.8c-0.2,0.2-0.4,0.5-0.6,0.7
				c-0.4-0.2-0.2-0.4,0-0.6c2-1.6,4-3.2,6-4.8C97.5-69.1,98-69.1,98.4-68.6z"/>
			<path class="st44" d="M100.2,4.9c1.5,1.4,2.8,1.3,3.6-0.3c0.6,0.8,0.5,1.6-0.5,1.8c-0.8,0.2-1.7,0.1-2.5,0
				C100.2,6.3,99.9,5.7,100.2,4.9z"/>
			<path class="st36" d="M105.5-90.2c-0.4,0.2-0.9,0.5-1.3,0.7c-1.5,0.5-3,1-4.4,1.5c-0.1-0.2-0.1-0.5-0.3-0.9
				C101.5-89.3,103.5-89.8,105.5-90.2z"/>
			<path class="st44" d="M130.3,4.1c0.7,0.8,0.7,1.3-0.2,1.5c-0.8,0.2-1.6,0.3-2.5,0.2c-0.8-0.1-0.9-0.5-0.7-1.1
				c0.6,0.2,1.2,0.6,1.9,0.6C129.5,5.4,130.1,5,130.3,4.1z"/>
			<path class="st45" d="M139.1-96.2c0,0.2,0.1,0.4,0.1,0.6c0.1,0.6-0.2,1.1-0.7,1.2c-0.6,0.1-1.1-0.3-1.1-0.9c-0.1-0.6,0.3-1,0.9-1
				c0.2,0,0.4,0,0.6,0l0,0C138.9-96.2,139-96.2,139.1-96.2L139.1-96.2z"/>
			<path class="st41" d="M90.7-66.5c0.7,0.1,1.3,0.2,2,0.4c-0.7,0.6-1.4,1.2-2.1,1.9c-0.1,0-0.2,0-0.2-0.1
				C90.5-65.1,90.6-65.8,90.7-66.5z"/>
			<path class="st46" d="M141.2-96.8c-1,0-1.7-0.4-2.4-1C140.1-98.1,140.6-97.9,141.2-96.8z"/>
			<path class="st36" d="M120.3-93.9c-0.5,0.8-1.3,1.5-1.4,2.5c-0.2,0-0.4-0.1-0.6-0.1C118.7-93,119.3-93.8,120.3-93.9z"/>
			<path class="st46" d="M140.1-100.3c0.3,0.8-0.2,1.7-1.1,1.9C138.9-99.3,139.3-100,140.1-100.3z"/>
			<path class="st46" d="M141-100.1c0.6,0.4,1.1,0.8,1.8,1.3c-1,0.4-1.4-0.1-1.9-0.4c-0.1-0.1-0.1-0.5-0.1-0.7
				C140.8-100,140.9-100.1,141-100.1z"/>
			<path class="st46" d="M138.8-96.3c-0.3-0.3-0.5-0.7-0.8-1c0-0.1,0.1-0.1,0.1-0.2c0.8,0.4,1.5,0.9,2.3,1.3c0,0.1,0,0.2-0.1,0.2
				c-0.4-0.1-0.9-0.2-1.3-0.2l0,0C139-96.2,138.9-96.2,138.8-96.3L138.8-96.3z"/>
			<path class="st46" d="M141.8-97.4c-0.5-0.3-1-0.7-1.5-1c0.4-0.5,1.2-0.1,1.7,0.8C141.9-97.5,141.8-97.5,141.8-97.4z"/>
			<path class="st42" d="M101.6-5.3c0,0.5-0.1,0.9-0.1,1.4C101.6-4.4,101.6-4.9,101.6-5.3z"/>
			<path class="st42" d="M101.2,0.8c0,0.2,0,0.4-0.1,0.6C101.2,1.2,101.2,1,101.2,0.8z"/>
			<path class="st42" d="M101,2.8c0,0.2,0,0.4-0.1,0.6C101,3.2,101,3,101,2.8z"/>
			<path class="st42" d="M101.3-1c0,0.2,0,0.3,0,0.5C101.3-0.7,101.3-0.9,101.3-1z"/>
			<path class="st42" d="M101.5-2.9c0,0.2,0,0.3,0,0.5C101.5-2.6,101.5-2.8,101.5-2.9z"/>
			<path class="st27" d="M102.5-43.3c0,0-0.1,0-0.1,0c0,0,0,0-0.1-0.1C102.3-43.4,102.3-43.4,102.5-43.3
				C102.4-43.4,102.4-43.3,102.5-43.3z"/>
			<path class="st27" d="M101.8-43.5c0.1,0,0.2,0,0.3,0c0,0,0,0.1,0,0.1C102-43.4,101.9-43.5,101.8-43.5L101.8-43.5z"/>
			<path class="st27" d="M101.8-43.5c-0.1,0-0.2,0-0.3,0c0,0,0-0.1,0-0.1C101.6-43.6,101.7-43.6,101.8-43.5L101.8-43.5z"/>
			<path class="st29" d="M160.7-132.3c0.1,0,0.1,0,0.2,0C160.8-132.3,160.8-132.3,160.7-132.3C160.7-132.3,160.7-132.3,160.7-132.3z
				"/>
			<path class="st34" d="M122.5-69.9c0,0.1,0,0.1,0,0.2C122.4-69.8,122.5-69.9,122.5-69.9z"/>
			<path class="st22" d="M109.9-73.2c-2.4-0.1-4.6-0.6-6.6-1.8c-3.3-2.1-3.9-5.8-1.3-8.8c1.9-2.2,4.4-3.4,7.3-4
				c3.2-0.6,6.3-0.5,9.2,1.1c0.4,0.2,0.7,0.4,1.1,0.7c2.8,2,3.3,5.4,1.2,8.1c-1.9,2.4-4.4,3.7-7.3,4.2
				C112.2-73.4,111-73.3,109.9-73.2z M112.3-87.5c-0.9,0.1-1.9,0.2-2.8,0.3c-2.9,0.5-5.5,1.7-7.4,4c-2,2.5-1.6,5.6,1.1,7.4
				c0.5,0.4,1.1,0.7,1.7,0.9c2,0.9,4.2,1.1,6.4,0.9c3.2-0.3,6.1-1.3,8.4-3.7c2.8-2.9,2.2-6.5-1.3-8.5
				C116.5-87.1,114.5-87.5,112.3-87.5z"/>
			<path class="st21" d="M91.3-62.7c0.1,0.1,0.2,0.2,0.3,0.3C91.5-62.5,91.4-62.6,91.3-62.7z"/>
			<path class="st21" d="M138.8-96.3c0.1,0.1,0.2,0.1,0.3,0.2C139-96.2,138.9-96.2,138.8-96.3z"/>
			<path class="st26" d="M112.3-87.5c2.1,0,4.1,0.5,6,1.5c3.5,1.9,4.1,5.6,1.3,8.5c-2.3,2.4-5.2,3.4-8.4,3.7c-2.2,0.2-4.3,0-6.4-0.9
				c-0.6-0.3-1.2-0.6-1.7-0.9c-2.6-1.9-3.1-4.9-1.1-7.4c1.9-2.3,4.5-3.5,7.4-4C110.5-87.4,111.4-87.4,112.3-87.5z M109.5-76.7
				c0.5-0.1,1.5-0.1,2.5-0.3c1.7-0.3,3.3-0.9,4.6-2.2c0.3-0.3,0.6-0.6,0.7-1c0.3-0.9,0.1-1.7-0.5-2.4c-0.6-0.7-1.3-0.5-2-0.2
				c-2.2,0.9-4.6,1.4-7,1.6c-1.3,0.1-2,1-1.8,2.3C106.3-77.5,107.2-76.8,109.5-76.7z M115-84.6c0.3,0.3,0.5,0.8,0.8,0.8
				c0.6,0,0.6-0.5,0.6-1c0-0.4,0-1-0.6-1C115.2-85.8,115.2-85.2,115-84.6z M107.4-83.5c-0.4-0.4-0.6-1-0.9-1
				c-0.6-0.1-0.7,0.5-0.7,0.9c0,0.5,0,1.1,0.6,1C106.8-82.6,107-83.1,107.4-83.5z"/>
			<path class="st47" d="M109.5-76.7c-2.3,0-3.3-0.7-3.4-2.2c-0.1-1.3,0.5-2.1,1.8-2.3c2.4-0.2,4.7-0.7,7-1.6c0.7-0.3,1.4-0.5,2,0.2
				c0.6,0.7,0.8,1.5,0.5,2.4c-0.1,0.4-0.4,0.7-0.7,1c-1.3,1.2-2.9,1.9-4.6,2.2C111.1-76.9,110.1-76.8,109.5-76.7z M117-80.8
				c-0.1-0.9-0.2-1.4-0.9-1.7c-0.4-0.2-1.7,0.4-1.9,0.8c-0.2,0.5-0.6,0.7-1.1,0.4c-0.5-0.3-0.9-0.2-1.1,0.3
				c-0.3,0.6-0.6,0.7-1.1,0.2c-0.4-0.4-0.7-0.3-0.9,0.2c-0.3,0.6-1.3,0.7-1.8,0.3c-0.5-0.4-1-0.3-1.4,0.2c-0.6,0.9-0.1,2.4,1,2.7
				c0.2,0,0.5,0,0.6-0.2c0.5-0.4,0.9-0.9,1.4-1.3c0.9-0.7,2-0.8,2.8,0.1c0.9,0.9,1.6,0.6,2.3,0.1c0.4-0.3,0.9-0.6,1.2-1
				C116.7-80.1,116.8-80.5,117-80.8z M112.6-78.3c-0.6-1-2.3-0.7-2.8,0.2c-0.1,0.1,0.1,0.4,0.1,0.6c0.2-0.1,0.4-0.1,0.5-0.2
				c0.2-0.2,0.4-0.5,0.7-0.5C111.6-78.2,112-78.2,112.6-78.3z"/>
			<path class="st21" d="M115-84.6c0.2-0.6,0.2-1.2,0.8-1.2c0.6,0,0.6,0.6,0.6,1c0,0.4,0,1-0.6,1C115.5-83.8,115.2-84.3,115-84.6z"
				/>
			<path class="st47" d="M107.4-83.5c-0.4,0.4-0.6,0.9-0.9,0.9c-0.6,0-0.6-0.6-0.6-1c0-0.4,0.1-1,0.7-0.9
				C106.8-84.5,107.1-84,107.4-83.5z"/>
			<path class="st48" d="M117-80.8c-0.1,0.2-0.3,0.7-0.6,1.1c-0.3,0.4-0.8,0.7-1.2,1c-0.8,0.5-1.5,0.9-2.3-0.1
				c-0.8-0.8-1.9-0.8-2.8-0.1c-0.5,0.4-0.9,0.9-1.4,1.3c-0.1,0.1-0.4,0.2-0.6,0.2c-1.1-0.3-1.6-1.8-1-2.7c0.3-0.5,0.9-0.6,1.4-0.2
				c0.5,0.5,1.5,0.3,1.8-0.3c0.2-0.5,0.5-0.6,0.9-0.2c0.5,0.5,0.8,0.4,1.1-0.2c0.2-0.5,0.6-0.7,1.1-0.3c0.5,0.3,0.8,0.1,1.1-0.4
				c0.2-0.4,1.4-0.9,1.9-0.8C116.7-82.2,116.9-81.6,117-80.8z"/>
			<path class="st49" d="M112.6-78.3c-0.6,0-1,0-1.5,0.1c-0.2,0.1-0.4,0.4-0.7,0.5c-0.1,0.1-0.3,0.1-0.5,0.2
				c-0.1-0.2-0.2-0.5-0.1-0.6C110.3-78.9,112-79.3,112.6-78.3z"/>
		</g>
	</g>
</g>
<rect x="-151.6" y="-11.5" class="st50" width="121.9" height="92.3"/>
</svg>
